G04 #@! TF.GenerationSoftware,KiCad,Pcbnew,5.1.10-88a1d61d58~90~ubuntu21.04.1*
G04 #@! TF.CreationDate,2021-09-19T17:29:36+02:00*
G04 #@! TF.ProjectId,23cm_PA,3233636d-5f50-4412-9e6b-696361645f70,rev?*
G04 #@! TF.SameCoordinates,Original*
G04 #@! TF.FileFunction,Copper,L2,Bot*
G04 #@! TF.FilePolarity,Positive*
%FSLAX46Y46*%
G04 Gerber Fmt 4.6, Leading zero omitted, Abs format (unit mm)*
G04 Created by KiCad (PCBNEW 5.1.10-88a1d61d58~90~ubuntu21.04.1) date 2021-09-19 17:29:36*
%MOMM*%
%LPD*%
G01*
G04 APERTURE LIST*
G04 #@! TA.AperFunction,ConnectorPad*
%ADD10C,6.400000*%
G04 #@! TD*
G04 #@! TA.AperFunction,ComponentPad*
%ADD11C,3.600000*%
G04 #@! TD*
G04 #@! TA.AperFunction,SMDPad,CuDef*
%ADD12R,4.200000X1.350000*%
G04 #@! TD*
G04 #@! TA.AperFunction,ComponentPad*
%ADD13O,1.700000X4.000000*%
G04 #@! TD*
G04 #@! TA.AperFunction,ViaPad*
%ADD14C,0.800000*%
G04 #@! TD*
G04 #@! TA.AperFunction,Conductor*
%ADD15C,0.254000*%
G04 #@! TD*
G04 #@! TA.AperFunction,Conductor*
%ADD16C,0.100000*%
G04 #@! TD*
G04 APERTURE END LIST*
D10*
X104000000Y-126000000D03*
D11*
X104000000Y-126000000D03*
D10*
X162000000Y-126000000D03*
D11*
X162000000Y-126000000D03*
D10*
X162000000Y-104000000D03*
D11*
X162000000Y-104000000D03*
D10*
X104000000Y-104000000D03*
D11*
X104000000Y-104000000D03*
D12*
X102108000Y-119825000D03*
X102108000Y-114175000D03*
X163957000Y-114175000D03*
X163957000Y-119825000D03*
D13*
X147955000Y-125730000D03*
G04 #@! TA.AperFunction,ComponentPad*
G36*
G01*
X144605000Y-127480100D02*
X144605000Y-123979900D01*
G75*
G02*
X144854900Y-123730000I249900J0D01*
G01*
X146055100Y-123730000D01*
G75*
G02*
X146305000Y-123979900I0J-249900D01*
G01*
X146305000Y-127480100D01*
G75*
G02*
X146055100Y-127730000I-249900J0D01*
G01*
X144854900Y-127730000D01*
G75*
G02*
X144605000Y-127480100I0J249900D01*
G01*
G37*
G04 #@! TD.AperFunction*
X120610000Y-125730000D03*
G04 #@! TA.AperFunction,ComponentPad*
G36*
G01*
X117260000Y-127480100D02*
X117260000Y-123979900D01*
G75*
G02*
X117509900Y-123730000I249900J0D01*
G01*
X118710100Y-123730000D01*
G75*
G02*
X118960000Y-123979900I0J-249900D01*
G01*
X118960000Y-127480100D01*
G75*
G02*
X118710100Y-127730000I-249900J0D01*
G01*
X117509900Y-127730000D01*
G75*
G02*
X117260000Y-127480100I0J249900D01*
G01*
G37*
G04 #@! TD.AperFunction*
D14*
X103632000Y-114046000D03*
X100711000Y-114046000D03*
X102108000Y-114046000D03*
X103632000Y-119761000D03*
X100711000Y-119761000D03*
X102108000Y-119761000D03*
X165354000Y-114173000D03*
X162306000Y-114173000D03*
X163957000Y-114173000D03*
X163957000Y-119888000D03*
X165354000Y-119888000D03*
X162306000Y-119888000D03*
X149606000Y-120777000D03*
X109982000Y-114046000D03*
X109982000Y-111760000D03*
X108966000Y-112268000D03*
X108966000Y-113538000D03*
X135636000Y-113284000D03*
X135636000Y-114300000D03*
X135636000Y-115316000D03*
X131572000Y-112776000D03*
X131572000Y-114046000D03*
X137414000Y-100838000D03*
X137414000Y-101854000D03*
X137414000Y-102870000D03*
X137414000Y-103886000D03*
X137414000Y-104902000D03*
X122682000Y-100838000D03*
X122682000Y-101854000D03*
X122682000Y-102870000D03*
X122682000Y-103886000D03*
X122682000Y-104902000D03*
X122682000Y-105918000D03*
X137414000Y-105918000D03*
X124460000Y-106934000D03*
X124460000Y-107950000D03*
X124460000Y-108966000D03*
X124460000Y-109982000D03*
X135636000Y-106934000D03*
X135636000Y-107950000D03*
X135636000Y-108966000D03*
X135636000Y-109982000D03*
X135636000Y-110998000D03*
X135636000Y-112014000D03*
X124460000Y-100965000D03*
X126365000Y-100965000D03*
X128270000Y-100965000D03*
X130175000Y-100965000D03*
X132080000Y-100965000D03*
X133985000Y-100965000D03*
X135890000Y-100965000D03*
X124460000Y-102870000D03*
X126365000Y-102870000D03*
X128270000Y-102870000D03*
X130175000Y-102870000D03*
X132080000Y-102870000D03*
X133985000Y-102870000D03*
X135890000Y-102870000D03*
X124460000Y-104775000D03*
X126365000Y-104775000D03*
X128270000Y-104775000D03*
X130175000Y-104775000D03*
X132080000Y-104775000D03*
X133985000Y-104775000D03*
X135890000Y-104775000D03*
X126365000Y-106680000D03*
X128270000Y-106680000D03*
X130175000Y-106680000D03*
X132080000Y-106680000D03*
X133985000Y-106680000D03*
X128270000Y-108585000D03*
X130175000Y-108585000D03*
X132080000Y-108585000D03*
X128270000Y-110490000D03*
X130175000Y-110490000D03*
X132080000Y-110490000D03*
X133985000Y-110490000D03*
X126365000Y-110490000D03*
X133985000Y-112395000D03*
X129540000Y-123190000D03*
X109220000Y-120015000D03*
X110490000Y-120015000D03*
X108458000Y-119126000D03*
X110998000Y-119126000D03*
D15*
X103312011Y-100468056D02*
X102636183Y-100670142D01*
X102012765Y-101000191D01*
X101989019Y-101016057D01*
X101614382Y-101434776D01*
X103378966Y-103199361D01*
X104000000Y-103820395D01*
X106385618Y-101434776D01*
X106010981Y-101016057D01*
X105390202Y-100681070D01*
X104715998Y-100473627D01*
X104056221Y-100406000D01*
X161968781Y-100406000D01*
X161312011Y-100468056D01*
X160636183Y-100670142D01*
X160012765Y-101000191D01*
X159989019Y-101016057D01*
X159614382Y-101434776D01*
X161378966Y-103199361D01*
X162000000Y-103820395D01*
X164385618Y-101434776D01*
X164010981Y-101016057D01*
X163390202Y-100681070D01*
X162715998Y-100473627D01*
X162056221Y-100406000D01*
X165594001Y-100406000D01*
X165594001Y-103968790D01*
X165531944Y-103312011D01*
X165329858Y-102636183D01*
X164999809Y-102012765D01*
X164983943Y-101989019D01*
X164565224Y-101614382D01*
X162179605Y-104000000D01*
X164565224Y-106385618D01*
X164983943Y-106010981D01*
X165318930Y-105390202D01*
X165526373Y-104715998D01*
X165594001Y-104056212D01*
X165594001Y-113117611D01*
X164179250Y-113119000D01*
X164084000Y-113214250D01*
X164084000Y-114048000D01*
X164104000Y-114048000D01*
X164104000Y-114302000D01*
X164084000Y-114302000D01*
X164084000Y-115135750D01*
X164179250Y-115231000D01*
X165594000Y-115232389D01*
X165594000Y-118767611D01*
X164179250Y-118769000D01*
X164084000Y-118864250D01*
X164084000Y-119698000D01*
X164104000Y-119698000D01*
X164104000Y-119952000D01*
X164084000Y-119952000D01*
X164084000Y-120785750D01*
X164179250Y-120881000D01*
X165594000Y-120882389D01*
X165594000Y-125968782D01*
X165531944Y-125312011D01*
X165329858Y-124636183D01*
X164999809Y-124012765D01*
X164983943Y-123989019D01*
X164565224Y-123614382D01*
X162179605Y-126000000D01*
X164565224Y-128385618D01*
X164983943Y-128010981D01*
X165318930Y-127390202D01*
X165526373Y-126715998D01*
X165594000Y-126056219D01*
X165594000Y-129594000D01*
X162031219Y-129594000D01*
X162687989Y-129531944D01*
X163363817Y-129329858D01*
X163987235Y-128999809D01*
X164010981Y-128983943D01*
X164385618Y-128565224D01*
X162000000Y-126179605D01*
X159614382Y-128565224D01*
X159989019Y-128983943D01*
X160609798Y-129318930D01*
X161284002Y-129526373D01*
X161943779Y-129594000D01*
X104031219Y-129594000D01*
X104687989Y-129531944D01*
X105363817Y-129329858D01*
X105987235Y-128999809D01*
X106010981Y-128983943D01*
X106385618Y-128565224D01*
X104000000Y-126179605D01*
X101614382Y-128565224D01*
X101989019Y-128983943D01*
X102609798Y-129318930D01*
X103284002Y-129526373D01*
X103943779Y-129594000D01*
X100406000Y-129594000D01*
X100406000Y-126031219D01*
X100468056Y-126687989D01*
X100670142Y-127363817D01*
X101000191Y-127987235D01*
X101016057Y-128010981D01*
X101434776Y-128385618D01*
X102430610Y-127389784D01*
X102637142Y-127183253D01*
X103820395Y-126000000D01*
X104179605Y-126000000D01*
X106565224Y-128385618D01*
X106983943Y-128010981D01*
X107318930Y-127390202D01*
X107526373Y-126715998D01*
X107598299Y-126014279D01*
X107531944Y-125312011D01*
X107329858Y-124636183D01*
X106999809Y-124012765D01*
X106983943Y-123989019D01*
X106973752Y-123979900D01*
X116877157Y-123979900D01*
X116877157Y-127480100D01*
X116889315Y-127603542D01*
X116925322Y-127722240D01*
X116983793Y-127831633D01*
X117062483Y-127927517D01*
X117158367Y-128006207D01*
X117267760Y-128064678D01*
X117386458Y-128100685D01*
X117509900Y-128112843D01*
X118710100Y-128112843D01*
X118833542Y-128100685D01*
X118952240Y-128064678D01*
X119061633Y-128006207D01*
X119157517Y-127927517D01*
X119236207Y-127831633D01*
X119294678Y-127722240D01*
X119330685Y-127603542D01*
X119342843Y-127480100D01*
X119342843Y-125857000D01*
X119379000Y-125857000D01*
X119379000Y-127007000D01*
X119427430Y-127244716D01*
X119521305Y-127468416D01*
X119657018Y-127669504D01*
X119829354Y-127840251D01*
X120031690Y-127974097D01*
X120256250Y-128065897D01*
X120293020Y-128069489D01*
X120483000Y-128008627D01*
X120483000Y-125857000D01*
X120737000Y-125857000D01*
X120737000Y-128008627D01*
X120926980Y-128069489D01*
X120963750Y-128065897D01*
X121188310Y-127974097D01*
X121390646Y-127840251D01*
X121562982Y-127669504D01*
X121698695Y-127468416D01*
X121792570Y-127244716D01*
X121841000Y-127007000D01*
X121841000Y-125857000D01*
X120737000Y-125857000D01*
X120483000Y-125857000D01*
X119379000Y-125857000D01*
X119342843Y-125857000D01*
X119342843Y-124453000D01*
X119379000Y-124453000D01*
X119379000Y-125603000D01*
X120483000Y-125603000D01*
X120483000Y-123451373D01*
X120737000Y-123451373D01*
X120737000Y-125603000D01*
X121841000Y-125603000D01*
X121841000Y-124453000D01*
X121792570Y-124215284D01*
X121698695Y-123991584D01*
X121690810Y-123979900D01*
X144222157Y-123979900D01*
X144222157Y-127480100D01*
X144234315Y-127603542D01*
X144270322Y-127722240D01*
X144328793Y-127831633D01*
X144407483Y-127927517D01*
X144503367Y-128006207D01*
X144612760Y-128064678D01*
X144731458Y-128100685D01*
X144854900Y-128112843D01*
X146055100Y-128112843D01*
X146178542Y-128100685D01*
X146297240Y-128064678D01*
X146406633Y-128006207D01*
X146502517Y-127927517D01*
X146581207Y-127831633D01*
X146639678Y-127722240D01*
X146675685Y-127603542D01*
X146687843Y-127480100D01*
X146687843Y-125857000D01*
X146724000Y-125857000D01*
X146724000Y-127007000D01*
X146772430Y-127244716D01*
X146866305Y-127468416D01*
X147002018Y-127669504D01*
X147174354Y-127840251D01*
X147376690Y-127974097D01*
X147601250Y-128065897D01*
X147638020Y-128069489D01*
X147828000Y-128008627D01*
X147828000Y-125857000D01*
X148082000Y-125857000D01*
X148082000Y-128008627D01*
X148271980Y-128069489D01*
X148308750Y-128065897D01*
X148533310Y-127974097D01*
X148735646Y-127840251D01*
X148907982Y-127669504D01*
X149043695Y-127468416D01*
X149137570Y-127244716D01*
X149186000Y-127007000D01*
X149186000Y-125985721D01*
X158401701Y-125985721D01*
X158468056Y-126687989D01*
X158670142Y-127363817D01*
X159000191Y-127987235D01*
X159016057Y-128010981D01*
X159434776Y-128385618D01*
X160430610Y-127389784D01*
X160637142Y-127183253D01*
X161820395Y-126000000D01*
X159434776Y-123614382D01*
X159016057Y-123989019D01*
X158681070Y-124609798D01*
X158473627Y-125284002D01*
X158401701Y-125985721D01*
X149186000Y-125985721D01*
X149186000Y-125857000D01*
X148082000Y-125857000D01*
X147828000Y-125857000D01*
X146724000Y-125857000D01*
X146687843Y-125857000D01*
X146687843Y-124453000D01*
X146724000Y-124453000D01*
X146724000Y-125603000D01*
X147828000Y-125603000D01*
X147828000Y-123451373D01*
X148082000Y-123451373D01*
X148082000Y-125603000D01*
X149186000Y-125603000D01*
X149186000Y-124453000D01*
X149137570Y-124215284D01*
X149043695Y-123991584D01*
X148907982Y-123790496D01*
X148735646Y-123619749D01*
X148533310Y-123485903D01*
X148408244Y-123434776D01*
X159614382Y-123434776D01*
X161378966Y-125199361D01*
X162000000Y-125820395D01*
X164385618Y-123434776D01*
X164010981Y-123016057D01*
X163390202Y-122681070D01*
X162715998Y-122473627D01*
X162014279Y-122401701D01*
X161312011Y-122468056D01*
X160636183Y-122670142D01*
X160012765Y-123000191D01*
X159989019Y-123016057D01*
X159614382Y-123434776D01*
X148408244Y-123434776D01*
X148308750Y-123394103D01*
X148271980Y-123390511D01*
X148082000Y-123451373D01*
X147828000Y-123451373D01*
X147638020Y-123390511D01*
X147601250Y-123394103D01*
X147376690Y-123485903D01*
X147174354Y-123619749D01*
X147002018Y-123790496D01*
X146866305Y-123991584D01*
X146772430Y-124215284D01*
X146724000Y-124453000D01*
X146687843Y-124453000D01*
X146687843Y-123979900D01*
X146675685Y-123856458D01*
X146639678Y-123737760D01*
X146581207Y-123628367D01*
X146502517Y-123532483D01*
X146406633Y-123453793D01*
X146297240Y-123395322D01*
X146178542Y-123359315D01*
X146055100Y-123347157D01*
X144854900Y-123347157D01*
X144731458Y-123359315D01*
X144612760Y-123395322D01*
X144503367Y-123453793D01*
X144407483Y-123532483D01*
X144328793Y-123628367D01*
X144270322Y-123737760D01*
X144234315Y-123856458D01*
X144222157Y-123979900D01*
X121690810Y-123979900D01*
X121562982Y-123790496D01*
X121390646Y-123619749D01*
X121188310Y-123485903D01*
X120963750Y-123394103D01*
X120926980Y-123390511D01*
X120737000Y-123451373D01*
X120483000Y-123451373D01*
X120293020Y-123390511D01*
X120256250Y-123394103D01*
X120031690Y-123485903D01*
X119829354Y-123619749D01*
X119657018Y-123790496D01*
X119521305Y-123991584D01*
X119427430Y-124215284D01*
X119379000Y-124453000D01*
X119342843Y-124453000D01*
X119342843Y-123979900D01*
X119330685Y-123856458D01*
X119294678Y-123737760D01*
X119236207Y-123628367D01*
X119157517Y-123532483D01*
X119061633Y-123453793D01*
X118952240Y-123395322D01*
X118833542Y-123359315D01*
X118710100Y-123347157D01*
X117509900Y-123347157D01*
X117386458Y-123359315D01*
X117267760Y-123395322D01*
X117158367Y-123453793D01*
X117062483Y-123532483D01*
X116983793Y-123628367D01*
X116925322Y-123737760D01*
X116889315Y-123856458D01*
X116877157Y-123979900D01*
X106973752Y-123979900D01*
X106565224Y-123614382D01*
X104179605Y-126000000D01*
X103820395Y-126000000D01*
X101434776Y-123614382D01*
X101016057Y-123989019D01*
X100681070Y-124609798D01*
X100473627Y-125284002D01*
X100406000Y-125943779D01*
X100406000Y-123434776D01*
X101614382Y-123434776D01*
X103378966Y-125199361D01*
X104000000Y-125820395D01*
X106385618Y-123434776D01*
X106010981Y-123016057D01*
X105390202Y-122681070D01*
X104715998Y-122473627D01*
X104014279Y-122401701D01*
X103312011Y-122468056D01*
X102636183Y-122670142D01*
X102012765Y-123000191D01*
X101989019Y-123016057D01*
X101614382Y-123434776D01*
X100406000Y-123434776D01*
X100406000Y-120882452D01*
X101885750Y-120881000D01*
X101981000Y-120785750D01*
X101981000Y-119952000D01*
X102235000Y-119952000D01*
X102235000Y-120785750D01*
X102330250Y-120881000D01*
X104208000Y-120882843D01*
X104282689Y-120875487D01*
X104354508Y-120853701D01*
X104420696Y-120818322D01*
X104478711Y-120770711D01*
X104526322Y-120712696D01*
X104561701Y-120646508D01*
X104583487Y-120574689D01*
X104590843Y-120500000D01*
X161474157Y-120500000D01*
X161481513Y-120574689D01*
X161503299Y-120646508D01*
X161538678Y-120712696D01*
X161586289Y-120770711D01*
X161644304Y-120818322D01*
X161710492Y-120853701D01*
X161782311Y-120875487D01*
X161857000Y-120882843D01*
X163734750Y-120881000D01*
X163830000Y-120785750D01*
X163830000Y-119952000D01*
X161571250Y-119952000D01*
X161476000Y-120047250D01*
X161474157Y-120500000D01*
X104590843Y-120500000D01*
X104589000Y-120047250D01*
X104493750Y-119952000D01*
X102235000Y-119952000D01*
X101981000Y-119952000D01*
X101961000Y-119952000D01*
X101961000Y-119698000D01*
X101981000Y-119698000D01*
X101981000Y-118864250D01*
X102235000Y-118864250D01*
X102235000Y-119698000D01*
X104493750Y-119698000D01*
X104589000Y-119602750D01*
X104590843Y-119150000D01*
X161474157Y-119150000D01*
X161476000Y-119602750D01*
X161571250Y-119698000D01*
X163830000Y-119698000D01*
X163830000Y-118864250D01*
X163734750Y-118769000D01*
X161857000Y-118767157D01*
X161782311Y-118774513D01*
X161710492Y-118796299D01*
X161644304Y-118831678D01*
X161586289Y-118879289D01*
X161538678Y-118937304D01*
X161503299Y-119003492D01*
X161481513Y-119075311D01*
X161474157Y-119150000D01*
X104590843Y-119150000D01*
X104583487Y-119075311D01*
X104561701Y-119003492D01*
X104526322Y-118937304D01*
X104478711Y-118879289D01*
X104420696Y-118831678D01*
X104354508Y-118796299D01*
X104282689Y-118774513D01*
X104208000Y-118767157D01*
X102330250Y-118769000D01*
X102235000Y-118864250D01*
X101981000Y-118864250D01*
X101885750Y-118769000D01*
X100406000Y-118767548D01*
X100406000Y-115232452D01*
X101885750Y-115231000D01*
X101981000Y-115135750D01*
X101981000Y-114302000D01*
X102235000Y-114302000D01*
X102235000Y-115135750D01*
X102330250Y-115231000D01*
X104208000Y-115232843D01*
X104282689Y-115225487D01*
X104354508Y-115203701D01*
X104420696Y-115168322D01*
X104478711Y-115120711D01*
X104526322Y-115062696D01*
X104561701Y-114996508D01*
X104583487Y-114924689D01*
X104590843Y-114850000D01*
X161474157Y-114850000D01*
X161481513Y-114924689D01*
X161503299Y-114996508D01*
X161538678Y-115062696D01*
X161586289Y-115120711D01*
X161644304Y-115168322D01*
X161710492Y-115203701D01*
X161782311Y-115225487D01*
X161857000Y-115232843D01*
X163734750Y-115231000D01*
X163830000Y-115135750D01*
X163830000Y-114302000D01*
X161571250Y-114302000D01*
X161476000Y-114397250D01*
X161474157Y-114850000D01*
X104590843Y-114850000D01*
X104589000Y-114397250D01*
X104493750Y-114302000D01*
X102235000Y-114302000D01*
X101981000Y-114302000D01*
X101961000Y-114302000D01*
X101961000Y-114048000D01*
X101981000Y-114048000D01*
X101981000Y-113214250D01*
X102235000Y-113214250D01*
X102235000Y-114048000D01*
X104493750Y-114048000D01*
X104589000Y-113952750D01*
X104590843Y-113500000D01*
X161474157Y-113500000D01*
X161476000Y-113952750D01*
X161571250Y-114048000D01*
X163830000Y-114048000D01*
X163830000Y-113214250D01*
X163734750Y-113119000D01*
X161857000Y-113117157D01*
X161782311Y-113124513D01*
X161710492Y-113146299D01*
X161644304Y-113181678D01*
X161586289Y-113229289D01*
X161538678Y-113287304D01*
X161503299Y-113353492D01*
X161481513Y-113425311D01*
X161474157Y-113500000D01*
X104590843Y-113500000D01*
X104583487Y-113425311D01*
X104561701Y-113353492D01*
X104526322Y-113287304D01*
X104478711Y-113229289D01*
X104420696Y-113181678D01*
X104354508Y-113146299D01*
X104282689Y-113124513D01*
X104208000Y-113117157D01*
X102330250Y-113119000D01*
X102235000Y-113214250D01*
X101981000Y-113214250D01*
X101885750Y-113119000D01*
X100406000Y-113117548D01*
X100406000Y-106565224D01*
X101614382Y-106565224D01*
X101989019Y-106983943D01*
X102609798Y-107318930D01*
X103284002Y-107526373D01*
X103985721Y-107598299D01*
X104687989Y-107531944D01*
X105363817Y-107329858D01*
X105987235Y-106999809D01*
X106010981Y-106983943D01*
X106385618Y-106565224D01*
X159614382Y-106565224D01*
X159989019Y-106983943D01*
X160609798Y-107318930D01*
X161284002Y-107526373D01*
X161985721Y-107598299D01*
X162687989Y-107531944D01*
X163363817Y-107329858D01*
X163987235Y-106999809D01*
X164010981Y-106983943D01*
X164385618Y-106565224D01*
X162000000Y-104179605D01*
X159614382Y-106565224D01*
X106385618Y-106565224D01*
X104000000Y-104179605D01*
X101614382Y-106565224D01*
X100406000Y-106565224D01*
X100406000Y-104031219D01*
X100468056Y-104687989D01*
X100670142Y-105363817D01*
X101000191Y-105987235D01*
X101016057Y-106010981D01*
X101434776Y-106385618D01*
X102430610Y-105389784D01*
X102637142Y-105183253D01*
X103820395Y-104000000D01*
X104179605Y-104000000D01*
X106565224Y-106385618D01*
X106983943Y-106010981D01*
X107318930Y-105390202D01*
X107526373Y-104715998D01*
X107598299Y-104014279D01*
X107595601Y-103985721D01*
X158401701Y-103985721D01*
X158468056Y-104687989D01*
X158670142Y-105363817D01*
X159000191Y-105987235D01*
X159016057Y-106010981D01*
X159434776Y-106385618D01*
X160430610Y-105389784D01*
X160637142Y-105183253D01*
X161820395Y-104000000D01*
X159434776Y-101614382D01*
X159016057Y-101989019D01*
X158681070Y-102609798D01*
X158473627Y-103284002D01*
X158401701Y-103985721D01*
X107595601Y-103985721D01*
X107531944Y-103312011D01*
X107329858Y-102636183D01*
X106999809Y-102012765D01*
X106983943Y-101989019D01*
X106565224Y-101614382D01*
X104179605Y-104000000D01*
X103820395Y-104000000D01*
X101434776Y-101614382D01*
X101016057Y-101989019D01*
X100681070Y-102609798D01*
X100473627Y-103284002D01*
X100406000Y-103943779D01*
X100406000Y-100406000D01*
X103968781Y-100406000D01*
X103312011Y-100468056D01*
G04 #@! TA.AperFunction,Conductor*
D16*
G36*
X103312011Y-100468056D02*
G01*
X102636183Y-100670142D01*
X102012765Y-101000191D01*
X101989019Y-101016057D01*
X101614382Y-101434776D01*
X103378966Y-103199361D01*
X104000000Y-103820395D01*
X106385618Y-101434776D01*
X106010981Y-101016057D01*
X105390202Y-100681070D01*
X104715998Y-100473627D01*
X104056221Y-100406000D01*
X161968781Y-100406000D01*
X161312011Y-100468056D01*
X160636183Y-100670142D01*
X160012765Y-101000191D01*
X159989019Y-101016057D01*
X159614382Y-101434776D01*
X161378966Y-103199361D01*
X162000000Y-103820395D01*
X164385618Y-101434776D01*
X164010981Y-101016057D01*
X163390202Y-100681070D01*
X162715998Y-100473627D01*
X162056221Y-100406000D01*
X165594001Y-100406000D01*
X165594001Y-103968790D01*
X165531944Y-103312011D01*
X165329858Y-102636183D01*
X164999809Y-102012765D01*
X164983943Y-101989019D01*
X164565224Y-101614382D01*
X162179605Y-104000000D01*
X164565224Y-106385618D01*
X164983943Y-106010981D01*
X165318930Y-105390202D01*
X165526373Y-104715998D01*
X165594001Y-104056212D01*
X165594001Y-113117611D01*
X164179250Y-113119000D01*
X164084000Y-113214250D01*
X164084000Y-114048000D01*
X164104000Y-114048000D01*
X164104000Y-114302000D01*
X164084000Y-114302000D01*
X164084000Y-115135750D01*
X164179250Y-115231000D01*
X165594000Y-115232389D01*
X165594000Y-118767611D01*
X164179250Y-118769000D01*
X164084000Y-118864250D01*
X164084000Y-119698000D01*
X164104000Y-119698000D01*
X164104000Y-119952000D01*
X164084000Y-119952000D01*
X164084000Y-120785750D01*
X164179250Y-120881000D01*
X165594000Y-120882389D01*
X165594000Y-125968782D01*
X165531944Y-125312011D01*
X165329858Y-124636183D01*
X164999809Y-124012765D01*
X164983943Y-123989019D01*
X164565224Y-123614382D01*
X162179605Y-126000000D01*
X164565224Y-128385618D01*
X164983943Y-128010981D01*
X165318930Y-127390202D01*
X165526373Y-126715998D01*
X165594000Y-126056219D01*
X165594000Y-129594000D01*
X162031219Y-129594000D01*
X162687989Y-129531944D01*
X163363817Y-129329858D01*
X163987235Y-128999809D01*
X164010981Y-128983943D01*
X164385618Y-128565224D01*
X162000000Y-126179605D01*
X159614382Y-128565224D01*
X159989019Y-128983943D01*
X160609798Y-129318930D01*
X161284002Y-129526373D01*
X161943779Y-129594000D01*
X104031219Y-129594000D01*
X104687989Y-129531944D01*
X105363817Y-129329858D01*
X105987235Y-128999809D01*
X106010981Y-128983943D01*
X106385618Y-128565224D01*
X104000000Y-126179605D01*
X101614382Y-128565224D01*
X101989019Y-128983943D01*
X102609798Y-129318930D01*
X103284002Y-129526373D01*
X103943779Y-129594000D01*
X100406000Y-129594000D01*
X100406000Y-126031219D01*
X100468056Y-126687989D01*
X100670142Y-127363817D01*
X101000191Y-127987235D01*
X101016057Y-128010981D01*
X101434776Y-128385618D01*
X102430610Y-127389784D01*
X102637142Y-127183253D01*
X103820395Y-126000000D01*
X104179605Y-126000000D01*
X106565224Y-128385618D01*
X106983943Y-128010981D01*
X107318930Y-127390202D01*
X107526373Y-126715998D01*
X107598299Y-126014279D01*
X107531944Y-125312011D01*
X107329858Y-124636183D01*
X106999809Y-124012765D01*
X106983943Y-123989019D01*
X106973752Y-123979900D01*
X116877157Y-123979900D01*
X116877157Y-127480100D01*
X116889315Y-127603542D01*
X116925322Y-127722240D01*
X116983793Y-127831633D01*
X117062483Y-127927517D01*
X117158367Y-128006207D01*
X117267760Y-128064678D01*
X117386458Y-128100685D01*
X117509900Y-128112843D01*
X118710100Y-128112843D01*
X118833542Y-128100685D01*
X118952240Y-128064678D01*
X119061633Y-128006207D01*
X119157517Y-127927517D01*
X119236207Y-127831633D01*
X119294678Y-127722240D01*
X119330685Y-127603542D01*
X119342843Y-127480100D01*
X119342843Y-125857000D01*
X119379000Y-125857000D01*
X119379000Y-127007000D01*
X119427430Y-127244716D01*
X119521305Y-127468416D01*
X119657018Y-127669504D01*
X119829354Y-127840251D01*
X120031690Y-127974097D01*
X120256250Y-128065897D01*
X120293020Y-128069489D01*
X120483000Y-128008627D01*
X120483000Y-125857000D01*
X120737000Y-125857000D01*
X120737000Y-128008627D01*
X120926980Y-128069489D01*
X120963750Y-128065897D01*
X121188310Y-127974097D01*
X121390646Y-127840251D01*
X121562982Y-127669504D01*
X121698695Y-127468416D01*
X121792570Y-127244716D01*
X121841000Y-127007000D01*
X121841000Y-125857000D01*
X120737000Y-125857000D01*
X120483000Y-125857000D01*
X119379000Y-125857000D01*
X119342843Y-125857000D01*
X119342843Y-124453000D01*
X119379000Y-124453000D01*
X119379000Y-125603000D01*
X120483000Y-125603000D01*
X120483000Y-123451373D01*
X120737000Y-123451373D01*
X120737000Y-125603000D01*
X121841000Y-125603000D01*
X121841000Y-124453000D01*
X121792570Y-124215284D01*
X121698695Y-123991584D01*
X121690810Y-123979900D01*
X144222157Y-123979900D01*
X144222157Y-127480100D01*
X144234315Y-127603542D01*
X144270322Y-127722240D01*
X144328793Y-127831633D01*
X144407483Y-127927517D01*
X144503367Y-128006207D01*
X144612760Y-128064678D01*
X144731458Y-128100685D01*
X144854900Y-128112843D01*
X146055100Y-128112843D01*
X146178542Y-128100685D01*
X146297240Y-128064678D01*
X146406633Y-128006207D01*
X146502517Y-127927517D01*
X146581207Y-127831633D01*
X146639678Y-127722240D01*
X146675685Y-127603542D01*
X146687843Y-127480100D01*
X146687843Y-125857000D01*
X146724000Y-125857000D01*
X146724000Y-127007000D01*
X146772430Y-127244716D01*
X146866305Y-127468416D01*
X147002018Y-127669504D01*
X147174354Y-127840251D01*
X147376690Y-127974097D01*
X147601250Y-128065897D01*
X147638020Y-128069489D01*
X147828000Y-128008627D01*
X147828000Y-125857000D01*
X148082000Y-125857000D01*
X148082000Y-128008627D01*
X148271980Y-128069489D01*
X148308750Y-128065897D01*
X148533310Y-127974097D01*
X148735646Y-127840251D01*
X148907982Y-127669504D01*
X149043695Y-127468416D01*
X149137570Y-127244716D01*
X149186000Y-127007000D01*
X149186000Y-125985721D01*
X158401701Y-125985721D01*
X158468056Y-126687989D01*
X158670142Y-127363817D01*
X159000191Y-127987235D01*
X159016057Y-128010981D01*
X159434776Y-128385618D01*
X160430610Y-127389784D01*
X160637142Y-127183253D01*
X161820395Y-126000000D01*
X159434776Y-123614382D01*
X159016057Y-123989019D01*
X158681070Y-124609798D01*
X158473627Y-125284002D01*
X158401701Y-125985721D01*
X149186000Y-125985721D01*
X149186000Y-125857000D01*
X148082000Y-125857000D01*
X147828000Y-125857000D01*
X146724000Y-125857000D01*
X146687843Y-125857000D01*
X146687843Y-124453000D01*
X146724000Y-124453000D01*
X146724000Y-125603000D01*
X147828000Y-125603000D01*
X147828000Y-123451373D01*
X148082000Y-123451373D01*
X148082000Y-125603000D01*
X149186000Y-125603000D01*
X149186000Y-124453000D01*
X149137570Y-124215284D01*
X149043695Y-123991584D01*
X148907982Y-123790496D01*
X148735646Y-123619749D01*
X148533310Y-123485903D01*
X148408244Y-123434776D01*
X159614382Y-123434776D01*
X161378966Y-125199361D01*
X162000000Y-125820395D01*
X164385618Y-123434776D01*
X164010981Y-123016057D01*
X163390202Y-122681070D01*
X162715998Y-122473627D01*
X162014279Y-122401701D01*
X161312011Y-122468056D01*
X160636183Y-122670142D01*
X160012765Y-123000191D01*
X159989019Y-123016057D01*
X159614382Y-123434776D01*
X148408244Y-123434776D01*
X148308750Y-123394103D01*
X148271980Y-123390511D01*
X148082000Y-123451373D01*
X147828000Y-123451373D01*
X147638020Y-123390511D01*
X147601250Y-123394103D01*
X147376690Y-123485903D01*
X147174354Y-123619749D01*
X147002018Y-123790496D01*
X146866305Y-123991584D01*
X146772430Y-124215284D01*
X146724000Y-124453000D01*
X146687843Y-124453000D01*
X146687843Y-123979900D01*
X146675685Y-123856458D01*
X146639678Y-123737760D01*
X146581207Y-123628367D01*
X146502517Y-123532483D01*
X146406633Y-123453793D01*
X146297240Y-123395322D01*
X146178542Y-123359315D01*
X146055100Y-123347157D01*
X144854900Y-123347157D01*
X144731458Y-123359315D01*
X144612760Y-123395322D01*
X144503367Y-123453793D01*
X144407483Y-123532483D01*
X144328793Y-123628367D01*
X144270322Y-123737760D01*
X144234315Y-123856458D01*
X144222157Y-123979900D01*
X121690810Y-123979900D01*
X121562982Y-123790496D01*
X121390646Y-123619749D01*
X121188310Y-123485903D01*
X120963750Y-123394103D01*
X120926980Y-123390511D01*
X120737000Y-123451373D01*
X120483000Y-123451373D01*
X120293020Y-123390511D01*
X120256250Y-123394103D01*
X120031690Y-123485903D01*
X119829354Y-123619749D01*
X119657018Y-123790496D01*
X119521305Y-123991584D01*
X119427430Y-124215284D01*
X119379000Y-124453000D01*
X119342843Y-124453000D01*
X119342843Y-123979900D01*
X119330685Y-123856458D01*
X119294678Y-123737760D01*
X119236207Y-123628367D01*
X119157517Y-123532483D01*
X119061633Y-123453793D01*
X118952240Y-123395322D01*
X118833542Y-123359315D01*
X118710100Y-123347157D01*
X117509900Y-123347157D01*
X117386458Y-123359315D01*
X117267760Y-123395322D01*
X117158367Y-123453793D01*
X117062483Y-123532483D01*
X116983793Y-123628367D01*
X116925322Y-123737760D01*
X116889315Y-123856458D01*
X116877157Y-123979900D01*
X106973752Y-123979900D01*
X106565224Y-123614382D01*
X104179605Y-126000000D01*
X103820395Y-126000000D01*
X101434776Y-123614382D01*
X101016057Y-123989019D01*
X100681070Y-124609798D01*
X100473627Y-125284002D01*
X100406000Y-125943779D01*
X100406000Y-123434776D01*
X101614382Y-123434776D01*
X103378966Y-125199361D01*
X104000000Y-125820395D01*
X106385618Y-123434776D01*
X106010981Y-123016057D01*
X105390202Y-122681070D01*
X104715998Y-122473627D01*
X104014279Y-122401701D01*
X103312011Y-122468056D01*
X102636183Y-122670142D01*
X102012765Y-123000191D01*
X101989019Y-123016057D01*
X101614382Y-123434776D01*
X100406000Y-123434776D01*
X100406000Y-120882452D01*
X101885750Y-120881000D01*
X101981000Y-120785750D01*
X101981000Y-119952000D01*
X102235000Y-119952000D01*
X102235000Y-120785750D01*
X102330250Y-120881000D01*
X104208000Y-120882843D01*
X104282689Y-120875487D01*
X104354508Y-120853701D01*
X104420696Y-120818322D01*
X104478711Y-120770711D01*
X104526322Y-120712696D01*
X104561701Y-120646508D01*
X104583487Y-120574689D01*
X104590843Y-120500000D01*
X161474157Y-120500000D01*
X161481513Y-120574689D01*
X161503299Y-120646508D01*
X161538678Y-120712696D01*
X161586289Y-120770711D01*
X161644304Y-120818322D01*
X161710492Y-120853701D01*
X161782311Y-120875487D01*
X161857000Y-120882843D01*
X163734750Y-120881000D01*
X163830000Y-120785750D01*
X163830000Y-119952000D01*
X161571250Y-119952000D01*
X161476000Y-120047250D01*
X161474157Y-120500000D01*
X104590843Y-120500000D01*
X104589000Y-120047250D01*
X104493750Y-119952000D01*
X102235000Y-119952000D01*
X101981000Y-119952000D01*
X101961000Y-119952000D01*
X101961000Y-119698000D01*
X101981000Y-119698000D01*
X101981000Y-118864250D01*
X102235000Y-118864250D01*
X102235000Y-119698000D01*
X104493750Y-119698000D01*
X104589000Y-119602750D01*
X104590843Y-119150000D01*
X161474157Y-119150000D01*
X161476000Y-119602750D01*
X161571250Y-119698000D01*
X163830000Y-119698000D01*
X163830000Y-118864250D01*
X163734750Y-118769000D01*
X161857000Y-118767157D01*
X161782311Y-118774513D01*
X161710492Y-118796299D01*
X161644304Y-118831678D01*
X161586289Y-118879289D01*
X161538678Y-118937304D01*
X161503299Y-119003492D01*
X161481513Y-119075311D01*
X161474157Y-119150000D01*
X104590843Y-119150000D01*
X104583487Y-119075311D01*
X104561701Y-119003492D01*
X104526322Y-118937304D01*
X104478711Y-118879289D01*
X104420696Y-118831678D01*
X104354508Y-118796299D01*
X104282689Y-118774513D01*
X104208000Y-118767157D01*
X102330250Y-118769000D01*
X102235000Y-118864250D01*
X101981000Y-118864250D01*
X101885750Y-118769000D01*
X100406000Y-118767548D01*
X100406000Y-115232452D01*
X101885750Y-115231000D01*
X101981000Y-115135750D01*
X101981000Y-114302000D01*
X102235000Y-114302000D01*
X102235000Y-115135750D01*
X102330250Y-115231000D01*
X104208000Y-115232843D01*
X104282689Y-115225487D01*
X104354508Y-115203701D01*
X104420696Y-115168322D01*
X104478711Y-115120711D01*
X104526322Y-115062696D01*
X104561701Y-114996508D01*
X104583487Y-114924689D01*
X104590843Y-114850000D01*
X161474157Y-114850000D01*
X161481513Y-114924689D01*
X161503299Y-114996508D01*
X161538678Y-115062696D01*
X161586289Y-115120711D01*
X161644304Y-115168322D01*
X161710492Y-115203701D01*
X161782311Y-115225487D01*
X161857000Y-115232843D01*
X163734750Y-115231000D01*
X163830000Y-115135750D01*
X163830000Y-114302000D01*
X161571250Y-114302000D01*
X161476000Y-114397250D01*
X161474157Y-114850000D01*
X104590843Y-114850000D01*
X104589000Y-114397250D01*
X104493750Y-114302000D01*
X102235000Y-114302000D01*
X101981000Y-114302000D01*
X101961000Y-114302000D01*
X101961000Y-114048000D01*
X101981000Y-114048000D01*
X101981000Y-113214250D01*
X102235000Y-113214250D01*
X102235000Y-114048000D01*
X104493750Y-114048000D01*
X104589000Y-113952750D01*
X104590843Y-113500000D01*
X161474157Y-113500000D01*
X161476000Y-113952750D01*
X161571250Y-114048000D01*
X163830000Y-114048000D01*
X163830000Y-113214250D01*
X163734750Y-113119000D01*
X161857000Y-113117157D01*
X161782311Y-113124513D01*
X161710492Y-113146299D01*
X161644304Y-113181678D01*
X161586289Y-113229289D01*
X161538678Y-113287304D01*
X161503299Y-113353492D01*
X161481513Y-113425311D01*
X161474157Y-113500000D01*
X104590843Y-113500000D01*
X104583487Y-113425311D01*
X104561701Y-113353492D01*
X104526322Y-113287304D01*
X104478711Y-113229289D01*
X104420696Y-113181678D01*
X104354508Y-113146299D01*
X104282689Y-113124513D01*
X104208000Y-113117157D01*
X102330250Y-113119000D01*
X102235000Y-113214250D01*
X101981000Y-113214250D01*
X101885750Y-113119000D01*
X100406000Y-113117548D01*
X100406000Y-106565224D01*
X101614382Y-106565224D01*
X101989019Y-106983943D01*
X102609798Y-107318930D01*
X103284002Y-107526373D01*
X103985721Y-107598299D01*
X104687989Y-107531944D01*
X105363817Y-107329858D01*
X105987235Y-106999809D01*
X106010981Y-106983943D01*
X106385618Y-106565224D01*
X159614382Y-106565224D01*
X159989019Y-106983943D01*
X160609798Y-107318930D01*
X161284002Y-107526373D01*
X161985721Y-107598299D01*
X162687989Y-107531944D01*
X163363817Y-107329858D01*
X163987235Y-106999809D01*
X164010981Y-106983943D01*
X164385618Y-106565224D01*
X162000000Y-104179605D01*
X159614382Y-106565224D01*
X106385618Y-106565224D01*
X104000000Y-104179605D01*
X101614382Y-106565224D01*
X100406000Y-106565224D01*
X100406000Y-104031219D01*
X100468056Y-104687989D01*
X100670142Y-105363817D01*
X101000191Y-105987235D01*
X101016057Y-106010981D01*
X101434776Y-106385618D01*
X102430610Y-105389784D01*
X102637142Y-105183253D01*
X103820395Y-104000000D01*
X104179605Y-104000000D01*
X106565224Y-106385618D01*
X106983943Y-106010981D01*
X107318930Y-105390202D01*
X107526373Y-104715998D01*
X107598299Y-104014279D01*
X107595601Y-103985721D01*
X158401701Y-103985721D01*
X158468056Y-104687989D01*
X158670142Y-105363817D01*
X159000191Y-105987235D01*
X159016057Y-106010981D01*
X159434776Y-106385618D01*
X160430610Y-105389784D01*
X160637142Y-105183253D01*
X161820395Y-104000000D01*
X159434776Y-101614382D01*
X159016057Y-101989019D01*
X158681070Y-102609798D01*
X158473627Y-103284002D01*
X158401701Y-103985721D01*
X107595601Y-103985721D01*
X107531944Y-103312011D01*
X107329858Y-102636183D01*
X106999809Y-102012765D01*
X106983943Y-101989019D01*
X106565224Y-101614382D01*
X104179605Y-104000000D01*
X103820395Y-104000000D01*
X101434776Y-101614382D01*
X101016057Y-101989019D01*
X100681070Y-102609798D01*
X100473627Y-103284002D01*
X100406000Y-103943779D01*
X100406000Y-100406000D01*
X103968781Y-100406000D01*
X103312011Y-100468056D01*
G37*
G04 #@! TD.AperFunction*
M02*
