G04 #@! TF.GenerationSoftware,KiCad,Pcbnew,5.1.10-88a1d61d58~90~ubuntu21.04.1*
G04 #@! TF.CreationDate,2021-09-19T17:29:36+02:00*
G04 #@! TF.ProjectId,23cm_PA,3233636d-5f50-4412-9e6b-696361645f70,rev?*
G04 #@! TF.SameCoordinates,Original*
G04 #@! TF.FileFunction,Paste,Top*
G04 #@! TF.FilePolarity,Positive*
%FSLAX46Y46*%
G04 Gerber Fmt 4.6, Leading zero omitted, Abs format (unit mm)*
G04 Created by KiCad (PCBNEW 5.1.10-88a1d61d58~90~ubuntu21.04.1) date 2021-09-19 17:29:36*
%MOMM*%
%LPD*%
G01*
G04 APERTURE LIST*
%ADD10R,1.300000X1.300000*%
%ADD11R,2.000000X1.300000*%
%ADD12R,1.460000X10.000000*%
%ADD13R,3.300000X1.700000*%
%ADD14R,0.800000X0.900000*%
%ADD15R,3.600000X1.270000*%
%ADD16R,4.200000X1.350000*%
G04 APERTURE END LIST*
D10*
X125051000Y-116720000D03*
D11*
X119551000Y-115570000D03*
D10*
X125051000Y-114420000D03*
D12*
X155500000Y-105000000D03*
X143500000Y-105000000D03*
X116500000Y-105000000D03*
X112000000Y-105000000D03*
D13*
X139730000Y-118745000D03*
X134230000Y-118745000D03*
G36*
G01*
X110600000Y-112452999D02*
X110600000Y-113353001D01*
G75*
G02*
X110350001Y-113603000I-249999J0D01*
G01*
X109649999Y-113603000D01*
G75*
G02*
X109400000Y-113353001I0J249999D01*
G01*
X109400000Y-112452999D01*
G75*
G02*
X109649999Y-112203000I249999J0D01*
G01*
X110350001Y-112203000D01*
G75*
G02*
X110600000Y-112452999I0J-249999D01*
G01*
G37*
G36*
G01*
X112600000Y-112452999D02*
X112600000Y-113353001D01*
G75*
G02*
X112350001Y-113603000I-249999J0D01*
G01*
X111649999Y-113603000D01*
G75*
G02*
X111400000Y-113353001I0J249999D01*
G01*
X111400000Y-112452999D01*
G75*
G02*
X111649999Y-112203000I249999J0D01*
G01*
X112350001Y-112203000D01*
G75*
G02*
X112600000Y-112452999I0J-249999D01*
G01*
G37*
G36*
G01*
X109277999Y-118400000D02*
X110178001Y-118400000D01*
G75*
G02*
X110428000Y-118649999I0J-249999D01*
G01*
X110428000Y-119350001D01*
G75*
G02*
X110178001Y-119600000I-249999J0D01*
G01*
X109277999Y-119600000D01*
G75*
G02*
X109028000Y-119350001I0J249999D01*
G01*
X109028000Y-118649999D01*
G75*
G02*
X109277999Y-118400000I249999J0D01*
G01*
G37*
G36*
G01*
X109277999Y-116400000D02*
X110178001Y-116400000D01*
G75*
G02*
X110428000Y-116649999I0J-249999D01*
G01*
X110428000Y-117350001D01*
G75*
G02*
X110178001Y-117600000I-249999J0D01*
G01*
X109277999Y-117600000D01*
G75*
G02*
X109028000Y-117350001I0J249999D01*
G01*
X109028000Y-116649999D01*
G75*
G02*
X109277999Y-116400000I249999J0D01*
G01*
G37*
G36*
G01*
X111549999Y-116400000D02*
X112450001Y-116400000D01*
G75*
G02*
X112700000Y-116649999I0J-249999D01*
G01*
X112700000Y-117350001D01*
G75*
G02*
X112450001Y-117600000I-249999J0D01*
G01*
X111549999Y-117600000D01*
G75*
G02*
X111300000Y-117350001I0J249999D01*
G01*
X111300000Y-116649999D01*
G75*
G02*
X111549999Y-116400000I249999J0D01*
G01*
G37*
G36*
G01*
X111549999Y-114400000D02*
X112450001Y-114400000D01*
G75*
G02*
X112700000Y-114649999I0J-249999D01*
G01*
X112700000Y-115350001D01*
G75*
G02*
X112450001Y-115600000I-249999J0D01*
G01*
X111549999Y-115600000D01*
G75*
G02*
X111300000Y-115350001I0J249999D01*
G01*
X111300000Y-114649999D01*
G75*
G02*
X111549999Y-114400000I249999J0D01*
G01*
G37*
G36*
G01*
X129575000Y-113870001D02*
X129575000Y-112969999D01*
G75*
G02*
X129824999Y-112720000I249999J0D01*
G01*
X130525001Y-112720000D01*
G75*
G02*
X130775000Y-112969999I0J-249999D01*
G01*
X130775000Y-113870001D01*
G75*
G02*
X130525001Y-114120000I-249999J0D01*
G01*
X129824999Y-114120000D01*
G75*
G02*
X129575000Y-113870001I0J249999D01*
G01*
G37*
G36*
G01*
X127575000Y-113870001D02*
X127575000Y-112969999D01*
G75*
G02*
X127824999Y-112720000I249999J0D01*
G01*
X128525001Y-112720000D01*
G75*
G02*
X128775000Y-112969999I0J-249999D01*
G01*
X128775000Y-113870001D01*
G75*
G02*
X128525001Y-114120000I-249999J0D01*
G01*
X127824999Y-114120000D01*
G75*
G02*
X127575000Y-113870001I0J249999D01*
G01*
G37*
G36*
G01*
X132899999Y-122574000D02*
X133800001Y-122574000D01*
G75*
G02*
X134050000Y-122823999I0J-249999D01*
G01*
X134050000Y-123524001D01*
G75*
G02*
X133800001Y-123774000I-249999J0D01*
G01*
X132899999Y-123774000D01*
G75*
G02*
X132650000Y-123524001I0J249999D01*
G01*
X132650000Y-122823999D01*
G75*
G02*
X132899999Y-122574000I249999J0D01*
G01*
G37*
G36*
G01*
X132899999Y-120574000D02*
X133800001Y-120574000D01*
G75*
G02*
X134050000Y-120823999I0J-249999D01*
G01*
X134050000Y-121524001D01*
G75*
G02*
X133800001Y-121774000I-249999J0D01*
G01*
X132899999Y-121774000D01*
G75*
G02*
X132650000Y-121524001I0J249999D01*
G01*
X132650000Y-120823999D01*
G75*
G02*
X132899999Y-120574000I249999J0D01*
G01*
G37*
G36*
G01*
X128775000Y-117269999D02*
X128775000Y-118170001D01*
G75*
G02*
X128525001Y-118420000I-249999J0D01*
G01*
X127824999Y-118420000D01*
G75*
G02*
X127575000Y-118170001I0J249999D01*
G01*
X127575000Y-117269999D01*
G75*
G02*
X127824999Y-117020000I249999J0D01*
G01*
X128525001Y-117020000D01*
G75*
G02*
X128775000Y-117269999I0J-249999D01*
G01*
G37*
G36*
G01*
X130775000Y-117269999D02*
X130775000Y-118170001D01*
G75*
G02*
X130525001Y-118420000I-249999J0D01*
G01*
X129824999Y-118420000D01*
G75*
G02*
X129575000Y-118170001I0J249999D01*
G01*
X129575000Y-117269999D01*
G75*
G02*
X129824999Y-117020000I249999J0D01*
G01*
X130525001Y-117020000D01*
G75*
G02*
X130775000Y-117269999I0J-249999D01*
G01*
G37*
G36*
G01*
X135339999Y-122574000D02*
X136240001Y-122574000D01*
G75*
G02*
X136490000Y-122823999I0J-249999D01*
G01*
X136490000Y-123524001D01*
G75*
G02*
X136240001Y-123774000I-249999J0D01*
G01*
X135339999Y-123774000D01*
G75*
G02*
X135090000Y-123524001I0J249999D01*
G01*
X135090000Y-122823999D01*
G75*
G02*
X135339999Y-122574000I249999J0D01*
G01*
G37*
G36*
G01*
X135339999Y-120574000D02*
X136240001Y-120574000D01*
G75*
G02*
X136490000Y-120823999I0J-249999D01*
G01*
X136490000Y-121524001D01*
G75*
G02*
X136240001Y-121774000I-249999J0D01*
G01*
X135339999Y-121774000D01*
G75*
G02*
X135090000Y-121524001I0J249999D01*
G01*
X135090000Y-120823999D01*
G75*
G02*
X135339999Y-120574000I249999J0D01*
G01*
G37*
G36*
G01*
X135125000Y-125279999D02*
X135125000Y-126180001D01*
G75*
G02*
X134875001Y-126430000I-249999J0D01*
G01*
X134174999Y-126430000D01*
G75*
G02*
X133925000Y-126180001I0J249999D01*
G01*
X133925000Y-125279999D01*
G75*
G02*
X134174999Y-125030000I249999J0D01*
G01*
X134875001Y-125030000D01*
G75*
G02*
X135125000Y-125279999I0J-249999D01*
G01*
G37*
G36*
G01*
X137125000Y-125279999D02*
X137125000Y-126180001D01*
G75*
G02*
X136875001Y-126430000I-249999J0D01*
G01*
X136174999Y-126430000D01*
G75*
G02*
X135925000Y-126180001I0J249999D01*
G01*
X135925000Y-125279999D01*
G75*
G02*
X136174999Y-125030000I249999J0D01*
G01*
X136875001Y-125030000D01*
G75*
G02*
X137125000Y-125279999I0J-249999D01*
G01*
G37*
G36*
G01*
X147516001Y-118345000D02*
X146615999Y-118345000D01*
G75*
G02*
X146366000Y-118095001I0J249999D01*
G01*
X146366000Y-117394999D01*
G75*
G02*
X146615999Y-117145000I249999J0D01*
G01*
X147516001Y-117145000D01*
G75*
G02*
X147766000Y-117394999I0J-249999D01*
G01*
X147766000Y-118095001D01*
G75*
G02*
X147516001Y-118345000I-249999J0D01*
G01*
G37*
G36*
G01*
X147516001Y-120345000D02*
X146615999Y-120345000D01*
G75*
G02*
X146366000Y-120095001I0J249999D01*
G01*
X146366000Y-119394999D01*
G75*
G02*
X146615999Y-119145000I249999J0D01*
G01*
X147516001Y-119145000D01*
G75*
G02*
X147766000Y-119394999I0J-249999D01*
G01*
X147766000Y-120095001D01*
G75*
G02*
X147516001Y-120345000I-249999J0D01*
G01*
G37*
G36*
G01*
X139300000Y-125279999D02*
X139300000Y-126180001D01*
G75*
G02*
X139050001Y-126430000I-249999J0D01*
G01*
X138349999Y-126430000D01*
G75*
G02*
X138100000Y-126180001I0J249999D01*
G01*
X138100000Y-125279999D01*
G75*
G02*
X138349999Y-125030000I249999J0D01*
G01*
X139050001Y-125030000D01*
G75*
G02*
X139300000Y-125279999I0J-249999D01*
G01*
G37*
G36*
G01*
X141300000Y-125279999D02*
X141300000Y-126180001D01*
G75*
G02*
X141050001Y-126430000I-249999J0D01*
G01*
X140349999Y-126430000D01*
G75*
G02*
X140100000Y-126180001I0J249999D01*
G01*
X140100000Y-125279999D01*
G75*
G02*
X140349999Y-125030000I249999J0D01*
G01*
X141050001Y-125030000D01*
G75*
G02*
X141300000Y-125279999I0J-249999D01*
G01*
G37*
D14*
X139700000Y-121174000D03*
X140650000Y-123174000D03*
X138750000Y-123174000D03*
D15*
X101908000Y-117000000D03*
D16*
X102108000Y-119825000D03*
X102108000Y-114175000D03*
D15*
X164157000Y-117000000D03*
D16*
X163957000Y-114175000D03*
X163957000Y-119825000D03*
G36*
G01*
X131260001Y-121701500D02*
X130359999Y-121701500D01*
G75*
G02*
X130110000Y-121451501I0J249999D01*
G01*
X130110000Y-120801499D01*
G75*
G02*
X130359999Y-120551500I249999J0D01*
G01*
X131260001Y-120551500D01*
G75*
G02*
X131510000Y-120801499I0J-249999D01*
G01*
X131510000Y-121451501D01*
G75*
G02*
X131260001Y-121701500I-249999J0D01*
G01*
G37*
G36*
G01*
X131260001Y-123751500D02*
X130359999Y-123751500D01*
G75*
G02*
X130110000Y-123501501I0J249999D01*
G01*
X130110000Y-122851499D01*
G75*
G02*
X130359999Y-122601500I249999J0D01*
G01*
X131260001Y-122601500D01*
G75*
G02*
X131510000Y-122851499I0J-249999D01*
G01*
X131510000Y-123501501D01*
G75*
G02*
X131260001Y-123751500I-249999J0D01*
G01*
G37*
D13*
X131230000Y-125730000D03*
X125730000Y-125730000D03*
G36*
G01*
X150056001Y-118272500D02*
X149155999Y-118272500D01*
G75*
G02*
X148906000Y-118022501I0J249999D01*
G01*
X148906000Y-117372499D01*
G75*
G02*
X149155999Y-117122500I249999J0D01*
G01*
X150056001Y-117122500D01*
G75*
G02*
X150306000Y-117372499I0J-249999D01*
G01*
X150306000Y-118022501D01*
G75*
G02*
X150056001Y-118272500I-249999J0D01*
G01*
G37*
G36*
G01*
X150056001Y-120322500D02*
X149155999Y-120322500D01*
G75*
G02*
X148906000Y-120072501I0J249999D01*
G01*
X148906000Y-119422499D01*
G75*
G02*
X149155999Y-119172500I249999J0D01*
G01*
X150056001Y-119172500D01*
G75*
G02*
X150306000Y-119422499I0J-249999D01*
G01*
X150306000Y-120072501D01*
G75*
G02*
X150056001Y-120322500I-249999J0D01*
G01*
G37*
G36*
G01*
X140150000Y-102075000D02*
X140150000Y-101125000D01*
G75*
G02*
X140400000Y-100875000I250000J0D01*
G01*
X141075000Y-100875000D01*
G75*
G02*
X141325000Y-101125000I0J-250000D01*
G01*
X141325000Y-102075000D01*
G75*
G02*
X141075000Y-102325000I-250000J0D01*
G01*
X140400000Y-102325000D01*
G75*
G02*
X140150000Y-102075000I0J250000D01*
G01*
G37*
G36*
G01*
X138075000Y-102075000D02*
X138075000Y-101125000D01*
G75*
G02*
X138325000Y-100875000I250000J0D01*
G01*
X139000000Y-100875000D01*
G75*
G02*
X139250000Y-101125000I0J-250000D01*
G01*
X139250000Y-102075000D01*
G75*
G02*
X139000000Y-102325000I-250000J0D01*
G01*
X138325000Y-102325000D01*
G75*
G02*
X138075000Y-102075000I0J250000D01*
G01*
G37*
G36*
G01*
X120824500Y-102075000D02*
X120824500Y-101125000D01*
G75*
G02*
X121074500Y-100875000I250000J0D01*
G01*
X121749500Y-100875000D01*
G75*
G02*
X121999500Y-101125000I0J-250000D01*
G01*
X121999500Y-102075000D01*
G75*
G02*
X121749500Y-102325000I-250000J0D01*
G01*
X121074500Y-102325000D01*
G75*
G02*
X120824500Y-102075000I0J250000D01*
G01*
G37*
G36*
G01*
X118749500Y-102075000D02*
X118749500Y-101125000D01*
G75*
G02*
X118999500Y-100875000I250000J0D01*
G01*
X119674500Y-100875000D01*
G75*
G02*
X119924500Y-101125000I0J-250000D01*
G01*
X119924500Y-102075000D01*
G75*
G02*
X119674500Y-102325000I-250000J0D01*
G01*
X118999500Y-102325000D01*
G75*
G02*
X118749500Y-102075000I0J250000D01*
G01*
G37*
G36*
G01*
X140150000Y-104615000D02*
X140150000Y-103665000D01*
G75*
G02*
X140400000Y-103415000I250000J0D01*
G01*
X141075000Y-103415000D01*
G75*
G02*
X141325000Y-103665000I0J-250000D01*
G01*
X141325000Y-104615000D01*
G75*
G02*
X141075000Y-104865000I-250000J0D01*
G01*
X140400000Y-104865000D01*
G75*
G02*
X140150000Y-104615000I0J250000D01*
G01*
G37*
G36*
G01*
X138075000Y-104615000D02*
X138075000Y-103665000D01*
G75*
G02*
X138325000Y-103415000I250000J0D01*
G01*
X139000000Y-103415000D01*
G75*
G02*
X139250000Y-103665000I0J-250000D01*
G01*
X139250000Y-104615000D01*
G75*
G02*
X139000000Y-104865000I-250000J0D01*
G01*
X138325000Y-104865000D01*
G75*
G02*
X138075000Y-104615000I0J250000D01*
G01*
G37*
G36*
G01*
X120824500Y-104615000D02*
X120824500Y-103665000D01*
G75*
G02*
X121074500Y-103415000I250000J0D01*
G01*
X121749500Y-103415000D01*
G75*
G02*
X121999500Y-103665000I0J-250000D01*
G01*
X121999500Y-104615000D01*
G75*
G02*
X121749500Y-104865000I-250000J0D01*
G01*
X121074500Y-104865000D01*
G75*
G02*
X120824500Y-104615000I0J250000D01*
G01*
G37*
G36*
G01*
X118749500Y-104615000D02*
X118749500Y-103665000D01*
G75*
G02*
X118999500Y-103415000I250000J0D01*
G01*
X119674500Y-103415000D01*
G75*
G02*
X119924500Y-103665000I0J-250000D01*
G01*
X119924500Y-104615000D01*
G75*
G02*
X119674500Y-104865000I-250000J0D01*
G01*
X118999500Y-104865000D01*
G75*
G02*
X118749500Y-104615000I0J250000D01*
G01*
G37*
G36*
G01*
X139075000Y-115325001D02*
X139075000Y-113274999D01*
G75*
G02*
X139324999Y-113025000I249999J0D01*
G01*
X141075001Y-113025000D01*
G75*
G02*
X141325000Y-113274999I0J-249999D01*
G01*
X141325000Y-115325001D01*
G75*
G02*
X141075001Y-115575000I-249999J0D01*
G01*
X139324999Y-115575000D01*
G75*
G02*
X139075000Y-115325001I0J249999D01*
G01*
G37*
G36*
G01*
X132675000Y-115325001D02*
X132675000Y-113274999D01*
G75*
G02*
X132924999Y-113025000I249999J0D01*
G01*
X134675001Y-113025000D01*
G75*
G02*
X134925000Y-113274999I0J-249999D01*
G01*
X134925000Y-115325001D01*
G75*
G02*
X134675001Y-115575000I-249999J0D01*
G01*
X132924999Y-115575000D01*
G75*
G02*
X132675000Y-115325001I0J249999D01*
G01*
G37*
G36*
G01*
X120999500Y-107559999D02*
X120999500Y-109610001D01*
G75*
G02*
X120749501Y-109860000I-249999J0D01*
G01*
X118999499Y-109860000D01*
G75*
G02*
X118749500Y-109610001I0J249999D01*
G01*
X118749500Y-107559999D01*
G75*
G02*
X118999499Y-107310000I249999J0D01*
G01*
X120749501Y-107310000D01*
G75*
G02*
X120999500Y-107559999I0J-249999D01*
G01*
G37*
G36*
G01*
X127399500Y-107559999D02*
X127399500Y-109610001D01*
G75*
G02*
X127149501Y-109860000I-249999J0D01*
G01*
X125399499Y-109860000D01*
G75*
G02*
X125149500Y-109610001I0J249999D01*
G01*
X125149500Y-107559999D01*
G75*
G02*
X125399499Y-107310000I249999J0D01*
G01*
X127149501Y-107310000D01*
G75*
G02*
X127399500Y-107559999I0J-249999D01*
G01*
G37*
G36*
G01*
X139075000Y-109610001D02*
X139075000Y-107559999D01*
G75*
G02*
X139324999Y-107310000I249999J0D01*
G01*
X141075001Y-107310000D01*
G75*
G02*
X141325000Y-107559999I0J-249999D01*
G01*
X141325000Y-109610001D01*
G75*
G02*
X141075001Y-109860000I-249999J0D01*
G01*
X139324999Y-109860000D01*
G75*
G02*
X139075000Y-109610001I0J249999D01*
G01*
G37*
G36*
G01*
X132675000Y-109610001D02*
X132675000Y-107559999D01*
G75*
G02*
X132924999Y-107310000I249999J0D01*
G01*
X134675001Y-107310000D01*
G75*
G02*
X134925000Y-107559999I0J-249999D01*
G01*
X134925000Y-109610001D01*
G75*
G02*
X134675001Y-109860000I-249999J0D01*
G01*
X132924999Y-109860000D01*
G75*
G02*
X132675000Y-109610001I0J249999D01*
G01*
G37*
M02*
