M48
; DRILL file {KiCad 5.1.10-88a1d61d58~90~ubuntu21.04.1} date Sun Sep 19 17:31:02 2021
; FORMAT={-:-/ absolute / metric / decimal}
; #@! TF.CreationDate,2021-09-19T17:31:02+02:00
; #@! TF.GenerationSoftware,Kicad,Pcbnew,5.1.10-88a1d61d58~90~ubuntu21.04.1
; #@! TF.FileFunction,Plated,1,2,PTH
FMAT,2
METRIC
T1C0.400
T2C1.000
T3C3.200
%
G90
G05
T1
X100.711Y-114.046
X100.711Y-119.761
X102.108Y-114.046
X102.108Y-119.761
X103.632Y-114.046
X103.632Y-119.761
X108.458Y-119.126
X108.966Y-112.268
X108.966Y-113.538
X109.22Y-120.015
X109.982Y-111.76
X109.982Y-114.046
X110.49Y-120.015
X110.998Y-119.126
X122.682Y-100.838
X122.682Y-101.854
X122.682Y-102.87
X122.682Y-103.886
X122.682Y-104.902
X122.682Y-105.918
X124.46Y-100.965
X124.46Y-102.87
X124.46Y-104.775
X124.46Y-106.934
X124.46Y-107.95
X124.46Y-108.966
X124.46Y-109.982
X126.365Y-100.965
X126.365Y-102.87
X126.365Y-104.775
X126.365Y-106.68
X126.365Y-110.49
X128.27Y-100.965
X128.27Y-102.87
X128.27Y-104.775
X128.27Y-106.68
X128.27Y-108.585
X128.27Y-110.49
X129.54Y-123.19
X130.175Y-100.965
X130.175Y-102.87
X130.175Y-104.775
X130.175Y-106.68
X130.175Y-108.585
X130.175Y-110.49
X131.572Y-112.776
X131.572Y-114.046
X132.08Y-100.965
X132.08Y-102.87
X132.08Y-104.775
X132.08Y-106.68
X132.08Y-108.585
X132.08Y-110.49
X133.985Y-100.965
X133.985Y-102.87
X133.985Y-104.775
X133.985Y-106.68
X133.985Y-110.49
X133.985Y-112.395
X135.636Y-106.934
X135.636Y-107.95
X135.636Y-108.966
X135.636Y-109.982
X135.636Y-110.998
X135.636Y-112.014
X135.636Y-113.284
X135.636Y-114.3
X135.636Y-115.316
X135.89Y-100.965
X135.89Y-102.87
X135.89Y-104.775
X137.414Y-100.838
X137.414Y-101.854
X137.414Y-102.87
X137.414Y-103.886
X137.414Y-104.902
X137.414Y-105.918
X149.606Y-120.777
X162.306Y-114.173
X162.306Y-119.888
X163.957Y-114.173
X163.957Y-119.888
X165.354Y-114.173
X165.354Y-119.888
T2
X118.11Y-125.73
X120.61Y-125.73
X145.455Y-125.73
X147.955Y-125.73
T3
X104.0Y-104.0
X104.0Y-126.0
X162.0Y-104.0
X162.0Y-126.0
T0
M30
