%FSLAX45Y45*%
G04 Gerber Fmt 4.5, Leading zero omitted, Abs format (unit mm)*
G04 Created by KiCad (PCBNEW 5.1.10-88a1d61d58~90~ubuntu21.04.1) date 2021-09-19 17:31:34*
%MOMM*%
%LPD*%
G01*
G04 APERTURE LIST*
%TA.AperFunction,Profile*%
%ADD10C,0.050000*%
%TD*%
%ADD11C,0.200000*%
%ADD12C,0.300000*%
G04 APERTURE END LIST*
D10*
X10000000Y-10000000D02*
X10000000Y-13000000D01*
X10000000Y-10000000D02*
X16600000Y-10000000D01*
X16600000Y-13000000D02*
X16600000Y-10000000D01*
X10000000Y-13000000D02*
X16600000Y-13000000D01*
D11*
X10051100Y-11384600D02*
X10091100Y-11424600D01*
X10091100Y-11384600D02*
X10051100Y-11424600D01*
X10051100Y-11956100D02*
X10091100Y-11996100D01*
X10091100Y-11956100D02*
X10051100Y-11996100D01*
X10190800Y-11384600D02*
X10230800Y-11424600D01*
X10230800Y-11384600D02*
X10190800Y-11424600D01*
X10190800Y-11956100D02*
X10230800Y-11996100D01*
X10230800Y-11956100D02*
X10190800Y-11996100D01*
X10343200Y-11384600D02*
X10383200Y-11424600D01*
X10383200Y-11384600D02*
X10343200Y-11424600D01*
X10343200Y-11956100D02*
X10383200Y-11996100D01*
X10383200Y-11956100D02*
X10343200Y-11996100D01*
X10825800Y-11892600D02*
X10865800Y-11932600D01*
X10865800Y-11892600D02*
X10825800Y-11932600D01*
X10876600Y-11206800D02*
X10916600Y-11246800D01*
X10916600Y-11206800D02*
X10876600Y-11246800D01*
X10876600Y-11333800D02*
X10916600Y-11373800D01*
X10916600Y-11333800D02*
X10876600Y-11373800D01*
X10902000Y-11981500D02*
X10942000Y-12021500D01*
X10942000Y-11981500D02*
X10902000Y-12021500D01*
X10978200Y-11156000D02*
X11018200Y-11196000D01*
X11018200Y-11156000D02*
X10978200Y-11196000D01*
X10978200Y-11384600D02*
X11018200Y-11424600D01*
X11018200Y-11384600D02*
X10978200Y-11424600D01*
X11029000Y-11981500D02*
X11069000Y-12021500D01*
X11069000Y-11981500D02*
X11029000Y-12021500D01*
X11079800Y-11892600D02*
X11119800Y-11932600D01*
X11119800Y-11892600D02*
X11079800Y-11932600D01*
X12248200Y-10063800D02*
X12288200Y-10103800D01*
X12288200Y-10063800D02*
X12248200Y-10103800D01*
X12248200Y-10165400D02*
X12288200Y-10205400D01*
X12288200Y-10165400D02*
X12248200Y-10205400D01*
X12248200Y-10267000D02*
X12288200Y-10307000D01*
X12288200Y-10267000D02*
X12248200Y-10307000D01*
X12248200Y-10368600D02*
X12288200Y-10408600D01*
X12288200Y-10368600D02*
X12248200Y-10408600D01*
X12248200Y-10470200D02*
X12288200Y-10510200D01*
X12288200Y-10470200D02*
X12248200Y-10510200D01*
X12248200Y-10571800D02*
X12288200Y-10611800D01*
X12288200Y-10571800D02*
X12248200Y-10611800D01*
X12426000Y-10076500D02*
X12466000Y-10116500D01*
X12466000Y-10076500D02*
X12426000Y-10116500D01*
X12426000Y-10267000D02*
X12466000Y-10307000D01*
X12466000Y-10267000D02*
X12426000Y-10307000D01*
X12426000Y-10457500D02*
X12466000Y-10497500D01*
X12466000Y-10457500D02*
X12426000Y-10497500D01*
X12426000Y-10673400D02*
X12466000Y-10713400D01*
X12466000Y-10673400D02*
X12426000Y-10713400D01*
X12426000Y-10775000D02*
X12466000Y-10815000D01*
X12466000Y-10775000D02*
X12426000Y-10815000D01*
X12426000Y-10876600D02*
X12466000Y-10916600D01*
X12466000Y-10876600D02*
X12426000Y-10916600D01*
X12426000Y-10978200D02*
X12466000Y-11018200D01*
X12466000Y-10978200D02*
X12426000Y-11018200D01*
X12616500Y-10076500D02*
X12656500Y-10116500D01*
X12656500Y-10076500D02*
X12616500Y-10116500D01*
X12616500Y-10267000D02*
X12656500Y-10307000D01*
X12656500Y-10267000D02*
X12616500Y-10307000D01*
X12616500Y-10457500D02*
X12656500Y-10497500D01*
X12656500Y-10457500D02*
X12616500Y-10497500D01*
X12616500Y-10648000D02*
X12656500Y-10688000D01*
X12656500Y-10648000D02*
X12616500Y-10688000D01*
X12616500Y-11029000D02*
X12656500Y-11069000D01*
X12656500Y-11029000D02*
X12616500Y-11069000D01*
X12807000Y-10076500D02*
X12847000Y-10116500D01*
X12847000Y-10076500D02*
X12807000Y-10116500D01*
X12807000Y-10267000D02*
X12847000Y-10307000D01*
X12847000Y-10267000D02*
X12807000Y-10307000D01*
X12807000Y-10457500D02*
X12847000Y-10497500D01*
X12847000Y-10457500D02*
X12807000Y-10497500D01*
X12807000Y-10648000D02*
X12847000Y-10688000D01*
X12847000Y-10648000D02*
X12807000Y-10688000D01*
X12807000Y-10838500D02*
X12847000Y-10878500D01*
X12847000Y-10838500D02*
X12807000Y-10878500D01*
X12807000Y-11029000D02*
X12847000Y-11069000D01*
X12847000Y-11029000D02*
X12807000Y-11069000D01*
X12934000Y-12299000D02*
X12974000Y-12339000D01*
X12974000Y-12299000D02*
X12934000Y-12339000D01*
X12997500Y-10076500D02*
X13037500Y-10116500D01*
X13037500Y-10076500D02*
X12997500Y-10116500D01*
X12997500Y-10267000D02*
X13037500Y-10307000D01*
X13037500Y-10267000D02*
X12997500Y-10307000D01*
X12997500Y-10457500D02*
X13037500Y-10497500D01*
X13037500Y-10457500D02*
X12997500Y-10497500D01*
X12997500Y-10648000D02*
X13037500Y-10688000D01*
X13037500Y-10648000D02*
X12997500Y-10688000D01*
X12997500Y-10838500D02*
X13037500Y-10878500D01*
X13037500Y-10838500D02*
X12997500Y-10878500D01*
X12997500Y-11029000D02*
X13037500Y-11069000D01*
X13037500Y-11029000D02*
X12997500Y-11069000D01*
X13137200Y-11257600D02*
X13177200Y-11297600D01*
X13177200Y-11257600D02*
X13137200Y-11297600D01*
X13137200Y-11384600D02*
X13177200Y-11424600D01*
X13177200Y-11384600D02*
X13137200Y-11424600D01*
X13188000Y-10076500D02*
X13228000Y-10116500D01*
X13228000Y-10076500D02*
X13188000Y-10116500D01*
X13188000Y-10267000D02*
X13228000Y-10307000D01*
X13228000Y-10267000D02*
X13188000Y-10307000D01*
X13188000Y-10457500D02*
X13228000Y-10497500D01*
X13228000Y-10457500D02*
X13188000Y-10497500D01*
X13188000Y-10648000D02*
X13228000Y-10688000D01*
X13228000Y-10648000D02*
X13188000Y-10688000D01*
X13188000Y-10838500D02*
X13228000Y-10878500D01*
X13228000Y-10838500D02*
X13188000Y-10878500D01*
X13188000Y-11029000D02*
X13228000Y-11069000D01*
X13228000Y-11029000D02*
X13188000Y-11069000D01*
X13378500Y-10076500D02*
X13418500Y-10116500D01*
X13418500Y-10076500D02*
X13378500Y-10116500D01*
X13378500Y-10267000D02*
X13418500Y-10307000D01*
X13418500Y-10267000D02*
X13378500Y-10307000D01*
X13378500Y-10457500D02*
X13418500Y-10497500D01*
X13418500Y-10457500D02*
X13378500Y-10497500D01*
X13378500Y-10648000D02*
X13418500Y-10688000D01*
X13418500Y-10648000D02*
X13378500Y-10688000D01*
X13378500Y-11029000D02*
X13418500Y-11069000D01*
X13418500Y-11029000D02*
X13378500Y-11069000D01*
X13378500Y-11219500D02*
X13418500Y-11259500D01*
X13418500Y-11219500D02*
X13378500Y-11259500D01*
X13543600Y-10673400D02*
X13583600Y-10713400D01*
X13583600Y-10673400D02*
X13543600Y-10713400D01*
X13543600Y-10775000D02*
X13583600Y-10815000D01*
X13583600Y-10775000D02*
X13543600Y-10815000D01*
X13543600Y-10876600D02*
X13583600Y-10916600D01*
X13583600Y-10876600D02*
X13543600Y-10916600D01*
X13543600Y-10978200D02*
X13583600Y-11018200D01*
X13583600Y-10978200D02*
X13543600Y-11018200D01*
X13543600Y-11079800D02*
X13583600Y-11119800D01*
X13583600Y-11079800D02*
X13543600Y-11119800D01*
X13543600Y-11181400D02*
X13583600Y-11221400D01*
X13583600Y-11181400D02*
X13543600Y-11221400D01*
X13543600Y-11308400D02*
X13583600Y-11348400D01*
X13583600Y-11308400D02*
X13543600Y-11348400D01*
X13543600Y-11410000D02*
X13583600Y-11450000D01*
X13583600Y-11410000D02*
X13543600Y-11450000D01*
X13543600Y-11511600D02*
X13583600Y-11551600D01*
X13583600Y-11511600D02*
X13543600Y-11551600D01*
X13569000Y-10076500D02*
X13609000Y-10116500D01*
X13609000Y-10076500D02*
X13569000Y-10116500D01*
X13569000Y-10267000D02*
X13609000Y-10307000D01*
X13609000Y-10267000D02*
X13569000Y-10307000D01*
X13569000Y-10457500D02*
X13609000Y-10497500D01*
X13609000Y-10457500D02*
X13569000Y-10497500D01*
X13721400Y-10063800D02*
X13761400Y-10103800D01*
X13761400Y-10063800D02*
X13721400Y-10103800D01*
X13721400Y-10165400D02*
X13761400Y-10205400D01*
X13761400Y-10165400D02*
X13721400Y-10205400D01*
X13721400Y-10267000D02*
X13761400Y-10307000D01*
X13761400Y-10267000D02*
X13721400Y-10307000D01*
X13721400Y-10368600D02*
X13761400Y-10408600D01*
X13761400Y-10368600D02*
X13721400Y-10408600D01*
X13721400Y-10470200D02*
X13761400Y-10510200D01*
X13761400Y-10470200D02*
X13721400Y-10510200D01*
X13721400Y-10571800D02*
X13761400Y-10611800D01*
X13761400Y-10571800D02*
X13721400Y-10611800D01*
X14940600Y-12057700D02*
X14980600Y-12097700D01*
X14980600Y-12057700D02*
X14940600Y-12097700D01*
X16210600Y-11397300D02*
X16250600Y-11437300D01*
X16250600Y-11397300D02*
X16210600Y-11437300D01*
X16210600Y-11968800D02*
X16250600Y-12008800D01*
X16250600Y-11968800D02*
X16210600Y-12008800D01*
X16375700Y-11397300D02*
X16415700Y-11437300D01*
X16415700Y-11397300D02*
X16375700Y-11437300D01*
X16375700Y-11968800D02*
X16415700Y-12008800D01*
X16415700Y-11968800D02*
X16375700Y-12008800D01*
X16515400Y-11397300D02*
X16555400Y-11437300D01*
X16555400Y-11397300D02*
X16515400Y-11437300D01*
X16515400Y-11968800D02*
X16555400Y-12008800D01*
X16555400Y-11968800D02*
X16515400Y-12008800D01*
X11861000Y-12573000D02*
G75*
G03*
X11861000Y-12573000I-50000J0D01*
G01*
X12111000Y-12573000D02*
G75*
G03*
X12111000Y-12573000I-50000J0D01*
G01*
X14595500Y-12573000D02*
G75*
G03*
X14595500Y-12573000I-50000J0D01*
G01*
X14845500Y-12573000D02*
G75*
G03*
X14845500Y-12573000I-50000J0D01*
G01*
X10400000Y-10240000D02*
X10400000Y-10560000D01*
X10240000Y-10400000D02*
X10560000Y-10400000D01*
X10400000Y-12440000D02*
X10400000Y-12760000D01*
X10240000Y-12600000D02*
X10560000Y-12600000D01*
X16200000Y-10240000D02*
X16200000Y-10560000D01*
X16040000Y-10400000D02*
X16360000Y-10400000D01*
X16200000Y-12440000D02*
X16200000Y-12760000D01*
X16040000Y-12600000D02*
X16360000Y-12600000D01*
D12*
X10283928Y-13468214D02*
X10283928Y-13168214D01*
X10355357Y-13168214D01*
X10398214Y-13182500D01*
X10426786Y-13211071D01*
X10441071Y-13239643D01*
X10455357Y-13296786D01*
X10455357Y-13339643D01*
X10441071Y-13396786D01*
X10426786Y-13425357D01*
X10398214Y-13453929D01*
X10355357Y-13468214D01*
X10283928Y-13468214D01*
X10583928Y-13468214D02*
X10583928Y-13268214D01*
X10583928Y-13325357D02*
X10598214Y-13296786D01*
X10612500Y-13282500D01*
X10641071Y-13268214D01*
X10669643Y-13268214D01*
X10769643Y-13468214D02*
X10769643Y-13268214D01*
X10769643Y-13168214D02*
X10755357Y-13182500D01*
X10769643Y-13196786D01*
X10783928Y-13182500D01*
X10769643Y-13168214D01*
X10769643Y-13196786D01*
X10955357Y-13468214D02*
X10926786Y-13453929D01*
X10912500Y-13425357D01*
X10912500Y-13168214D01*
X11112500Y-13468214D02*
X11083928Y-13453929D01*
X11069643Y-13425357D01*
X11069643Y-13168214D01*
X11455357Y-13468214D02*
X11455357Y-13168214D01*
X11555357Y-13382500D01*
X11655357Y-13168214D01*
X11655357Y-13468214D01*
X11926786Y-13468214D02*
X11926786Y-13311071D01*
X11912500Y-13282500D01*
X11883928Y-13268214D01*
X11826786Y-13268214D01*
X11798214Y-13282500D01*
X11926786Y-13453929D02*
X11898214Y-13468214D01*
X11826786Y-13468214D01*
X11798214Y-13453929D01*
X11783928Y-13425357D01*
X11783928Y-13396786D01*
X11798214Y-13368214D01*
X11826786Y-13353929D01*
X11898214Y-13353929D01*
X11926786Y-13339643D01*
X12069643Y-13268214D02*
X12069643Y-13568214D01*
X12069643Y-13282500D02*
X12098214Y-13268214D01*
X12155357Y-13268214D01*
X12183928Y-13282500D01*
X12198214Y-13296786D01*
X12212500Y-13325357D01*
X12212500Y-13411071D01*
X12198214Y-13439643D01*
X12183928Y-13453929D01*
X12155357Y-13468214D01*
X12098214Y-13468214D01*
X12069643Y-13453929D01*
X12341071Y-13439643D02*
X12355357Y-13453929D01*
X12341071Y-13468214D01*
X12326786Y-13453929D01*
X12341071Y-13439643D01*
X12341071Y-13468214D01*
X12341071Y-13282500D02*
X12355357Y-13296786D01*
X12341071Y-13311071D01*
X12326786Y-13296786D01*
X12341071Y-13282500D01*
X12341071Y-13311071D01*
X9957500Y-13942500D02*
X9997500Y-13982500D01*
X9997500Y-13942500D02*
X9957500Y-13982500D01*
X10341071Y-13798214D02*
X10369643Y-13798214D01*
X10398214Y-13812500D01*
X10412500Y-13826786D01*
X10426786Y-13855357D01*
X10441071Y-13912500D01*
X10441071Y-13983929D01*
X10426786Y-14041071D01*
X10412500Y-14069643D01*
X10398214Y-14083929D01*
X10369643Y-14098214D01*
X10341071Y-14098214D01*
X10312500Y-14083929D01*
X10298214Y-14069643D01*
X10283928Y-14041071D01*
X10269643Y-13983929D01*
X10269643Y-13912500D01*
X10283928Y-13855357D01*
X10298214Y-13826786D01*
X10312500Y-13812500D01*
X10341071Y-13798214D01*
X10569643Y-14069643D02*
X10583928Y-14083929D01*
X10569643Y-14098214D01*
X10555357Y-14083929D01*
X10569643Y-14069643D01*
X10569643Y-14098214D01*
X10841071Y-13898214D02*
X10841071Y-14098214D01*
X10769643Y-13783929D02*
X10698214Y-13998214D01*
X10883928Y-13998214D01*
X11055357Y-13798214D02*
X11083928Y-13798214D01*
X11112500Y-13812500D01*
X11126786Y-13826786D01*
X11141071Y-13855357D01*
X11155357Y-13912500D01*
X11155357Y-13983929D01*
X11141071Y-14041071D01*
X11126786Y-14069643D01*
X11112500Y-14083929D01*
X11083928Y-14098214D01*
X11055357Y-14098214D01*
X11026786Y-14083929D01*
X11012500Y-14069643D01*
X10998214Y-14041071D01*
X10983928Y-13983929D01*
X10983928Y-13912500D01*
X10998214Y-13855357D01*
X11012500Y-13826786D01*
X11026786Y-13812500D01*
X11055357Y-13798214D01*
X11341071Y-13798214D02*
X11369643Y-13798214D01*
X11398214Y-13812500D01*
X11412500Y-13826786D01*
X11426786Y-13855357D01*
X11441071Y-13912500D01*
X11441071Y-13983929D01*
X11426786Y-14041071D01*
X11412500Y-14069643D01*
X11398214Y-14083929D01*
X11369643Y-14098214D01*
X11341071Y-14098214D01*
X11312500Y-14083929D01*
X11298214Y-14069643D01*
X11283928Y-14041071D01*
X11269643Y-13983929D01*
X11269643Y-13912500D01*
X11283928Y-13855357D01*
X11298214Y-13826786D01*
X11312500Y-13812500D01*
X11341071Y-13798214D01*
X11569643Y-14098214D02*
X11569643Y-13898214D01*
X11569643Y-13926786D02*
X11583928Y-13912500D01*
X11612500Y-13898214D01*
X11655357Y-13898214D01*
X11683928Y-13912500D01*
X11698214Y-13941071D01*
X11698214Y-14098214D01*
X11698214Y-13941071D02*
X11712500Y-13912500D01*
X11741071Y-13898214D01*
X11783928Y-13898214D01*
X11812500Y-13912500D01*
X11826786Y-13941071D01*
X11826786Y-14098214D01*
X11969643Y-14098214D02*
X11969643Y-13898214D01*
X11969643Y-13926786D02*
X11983928Y-13912500D01*
X12012500Y-13898214D01*
X12055357Y-13898214D01*
X12083928Y-13912500D01*
X12098214Y-13941071D01*
X12098214Y-14098214D01*
X12098214Y-13941071D02*
X12112500Y-13912500D01*
X12141071Y-13898214D01*
X12183928Y-13898214D01*
X12212500Y-13912500D01*
X12226786Y-13941071D01*
X12226786Y-14098214D01*
X12812500Y-13783929D02*
X12555357Y-14169643D01*
X13198214Y-13798214D02*
X13226786Y-13798214D01*
X13255357Y-13812500D01*
X13269643Y-13826786D01*
X13283928Y-13855357D01*
X13298214Y-13912500D01*
X13298214Y-13983929D01*
X13283928Y-14041071D01*
X13269643Y-14069643D01*
X13255357Y-14083929D01*
X13226786Y-14098214D01*
X13198214Y-14098214D01*
X13169643Y-14083929D01*
X13155357Y-14069643D01*
X13141071Y-14041071D01*
X13126786Y-13983929D01*
X13126786Y-13912500D01*
X13141071Y-13855357D01*
X13155357Y-13826786D01*
X13169643Y-13812500D01*
X13198214Y-13798214D01*
X13426786Y-14069643D02*
X13441071Y-14083929D01*
X13426786Y-14098214D01*
X13412500Y-14083929D01*
X13426786Y-14069643D01*
X13426786Y-14098214D01*
X13626786Y-13798214D02*
X13655357Y-13798214D01*
X13683928Y-13812500D01*
X13698214Y-13826786D01*
X13712500Y-13855357D01*
X13726786Y-13912500D01*
X13726786Y-13983929D01*
X13712500Y-14041071D01*
X13698214Y-14069643D01*
X13683928Y-14083929D01*
X13655357Y-14098214D01*
X13626786Y-14098214D01*
X13598214Y-14083929D01*
X13583928Y-14069643D01*
X13569643Y-14041071D01*
X13555357Y-13983929D01*
X13555357Y-13912500D01*
X13569643Y-13855357D01*
X13583928Y-13826786D01*
X13598214Y-13812500D01*
X13626786Y-13798214D01*
X14012500Y-14098214D02*
X13841071Y-14098214D01*
X13926786Y-14098214D02*
X13926786Y-13798214D01*
X13898214Y-13841071D01*
X13869643Y-13869643D01*
X13841071Y-13883929D01*
X14283928Y-13798214D02*
X14141071Y-13798214D01*
X14126786Y-13941071D01*
X14141071Y-13926786D01*
X14169643Y-13912500D01*
X14241071Y-13912500D01*
X14269643Y-13926786D01*
X14283928Y-13941071D01*
X14298214Y-13969643D01*
X14298214Y-14041071D01*
X14283928Y-14069643D01*
X14269643Y-14083929D01*
X14241071Y-14098214D01*
X14169643Y-14098214D01*
X14141071Y-14083929D01*
X14126786Y-14069643D01*
X14398214Y-13798214D02*
X14598214Y-13798214D01*
X14469643Y-14098214D01*
X14698214Y-13798214D02*
X14698214Y-13855357D01*
X14812500Y-13798214D02*
X14812500Y-13855357D01*
X15255357Y-14212500D02*
X15241071Y-14198214D01*
X15212500Y-14155357D01*
X15198214Y-14126786D01*
X15183928Y-14083929D01*
X15169643Y-14012500D01*
X15169643Y-13955357D01*
X15183928Y-13883929D01*
X15198214Y-13841071D01*
X15212500Y-13812500D01*
X15241071Y-13769643D01*
X15255357Y-13755357D01*
X15412500Y-13926786D02*
X15383928Y-13912500D01*
X15369643Y-13898214D01*
X15355357Y-13869643D01*
X15355357Y-13855357D01*
X15369643Y-13826786D01*
X15383928Y-13812500D01*
X15412500Y-13798214D01*
X15469643Y-13798214D01*
X15498214Y-13812500D01*
X15512500Y-13826786D01*
X15526786Y-13855357D01*
X15526786Y-13869643D01*
X15512500Y-13898214D01*
X15498214Y-13912500D01*
X15469643Y-13926786D01*
X15412500Y-13926786D01*
X15383928Y-13941071D01*
X15369643Y-13955357D01*
X15355357Y-13983929D01*
X15355357Y-14041071D01*
X15369643Y-14069643D01*
X15383928Y-14083929D01*
X15412500Y-14098214D01*
X15469643Y-14098214D01*
X15498214Y-14083929D01*
X15512500Y-14069643D01*
X15526786Y-14041071D01*
X15526786Y-13983929D01*
X15512500Y-13955357D01*
X15498214Y-13941071D01*
X15469643Y-13926786D01*
X15783928Y-13898214D02*
X15783928Y-14098214D01*
X15712500Y-13783929D02*
X15641071Y-13998214D01*
X15826786Y-13998214D01*
X16169643Y-14098214D02*
X16169643Y-13798214D01*
X16298214Y-14098214D02*
X16298214Y-13941071D01*
X16283928Y-13912500D01*
X16255357Y-13898214D01*
X16212500Y-13898214D01*
X16183928Y-13912500D01*
X16169643Y-13926786D01*
X16483928Y-14098214D02*
X16455357Y-14083929D01*
X16441071Y-14069643D01*
X16426786Y-14041071D01*
X16426786Y-13955357D01*
X16441071Y-13926786D01*
X16455357Y-13912500D01*
X16483928Y-13898214D01*
X16526786Y-13898214D01*
X16555357Y-13912500D01*
X16569643Y-13926786D01*
X16583928Y-13955357D01*
X16583928Y-14041071D01*
X16569643Y-14069643D01*
X16555357Y-14083929D01*
X16526786Y-14098214D01*
X16483928Y-14098214D01*
X16755357Y-14098214D02*
X16726786Y-14083929D01*
X16712500Y-14055357D01*
X16712500Y-13798214D01*
X16983928Y-14083929D02*
X16955357Y-14098214D01*
X16898214Y-14098214D01*
X16869643Y-14083929D01*
X16855357Y-14055357D01*
X16855357Y-13941071D01*
X16869643Y-13912500D01*
X16898214Y-13898214D01*
X16955357Y-13898214D01*
X16983928Y-13912500D01*
X16998214Y-13941071D01*
X16998214Y-13969643D01*
X16855357Y-13998214D01*
X17112500Y-14083929D02*
X17141071Y-14098214D01*
X17198214Y-14098214D01*
X17226786Y-14083929D01*
X17241071Y-14055357D01*
X17241071Y-14041071D01*
X17226786Y-14012500D01*
X17198214Y-13998214D01*
X17155357Y-13998214D01*
X17126786Y-13983929D01*
X17112500Y-13955357D01*
X17112500Y-13941071D01*
X17126786Y-13912500D01*
X17155357Y-13898214D01*
X17198214Y-13898214D01*
X17226786Y-13912500D01*
X17341071Y-14212500D02*
X17355357Y-14198214D01*
X17383928Y-14155357D01*
X17398214Y-14126786D01*
X17412500Y-14083929D01*
X17426786Y-14012500D01*
X17426786Y-13955357D01*
X17412500Y-13883929D01*
X17398214Y-13841071D01*
X17383928Y-13812500D01*
X17355357Y-13769643D01*
X17341071Y-13755357D01*
X9997500Y-14358500D02*
G75*
G03*
X9997500Y-14358500I-50000J0D01*
G01*
X10441071Y-14494214D02*
X10269643Y-14494214D01*
X10355357Y-14494214D02*
X10355357Y-14194214D01*
X10326786Y-14237071D01*
X10298214Y-14265643D01*
X10269643Y-14279929D01*
X10569643Y-14465643D02*
X10583928Y-14479929D01*
X10569643Y-14494214D01*
X10555357Y-14479929D01*
X10569643Y-14465643D01*
X10569643Y-14494214D01*
X10769643Y-14194214D02*
X10798214Y-14194214D01*
X10826786Y-14208500D01*
X10841071Y-14222786D01*
X10855357Y-14251357D01*
X10869643Y-14308500D01*
X10869643Y-14379929D01*
X10855357Y-14437071D01*
X10841071Y-14465643D01*
X10826786Y-14479929D01*
X10798214Y-14494214D01*
X10769643Y-14494214D01*
X10741071Y-14479929D01*
X10726786Y-14465643D01*
X10712500Y-14437071D01*
X10698214Y-14379929D01*
X10698214Y-14308500D01*
X10712500Y-14251357D01*
X10726786Y-14222786D01*
X10741071Y-14208500D01*
X10769643Y-14194214D01*
X11055357Y-14194214D02*
X11083928Y-14194214D01*
X11112500Y-14208500D01*
X11126786Y-14222786D01*
X11141071Y-14251357D01*
X11155357Y-14308500D01*
X11155357Y-14379929D01*
X11141071Y-14437071D01*
X11126786Y-14465643D01*
X11112500Y-14479929D01*
X11083928Y-14494214D01*
X11055357Y-14494214D01*
X11026786Y-14479929D01*
X11012500Y-14465643D01*
X10998214Y-14437071D01*
X10983928Y-14379929D01*
X10983928Y-14308500D01*
X10998214Y-14251357D01*
X11012500Y-14222786D01*
X11026786Y-14208500D01*
X11055357Y-14194214D01*
X11341071Y-14194214D02*
X11369643Y-14194214D01*
X11398214Y-14208500D01*
X11412500Y-14222786D01*
X11426786Y-14251357D01*
X11441071Y-14308500D01*
X11441071Y-14379929D01*
X11426786Y-14437071D01*
X11412500Y-14465643D01*
X11398214Y-14479929D01*
X11369643Y-14494214D01*
X11341071Y-14494214D01*
X11312500Y-14479929D01*
X11298214Y-14465643D01*
X11283928Y-14437071D01*
X11269643Y-14379929D01*
X11269643Y-14308500D01*
X11283928Y-14251357D01*
X11298214Y-14222786D01*
X11312500Y-14208500D01*
X11341071Y-14194214D01*
X11569643Y-14494214D02*
X11569643Y-14294214D01*
X11569643Y-14322786D02*
X11583928Y-14308500D01*
X11612500Y-14294214D01*
X11655357Y-14294214D01*
X11683928Y-14308500D01*
X11698214Y-14337071D01*
X11698214Y-14494214D01*
X11698214Y-14337071D02*
X11712500Y-14308500D01*
X11741071Y-14294214D01*
X11783928Y-14294214D01*
X11812500Y-14308500D01*
X11826786Y-14337071D01*
X11826786Y-14494214D01*
X11969643Y-14494214D02*
X11969643Y-14294214D01*
X11969643Y-14322786D02*
X11983928Y-14308500D01*
X12012500Y-14294214D01*
X12055357Y-14294214D01*
X12083928Y-14308500D01*
X12098214Y-14337071D01*
X12098214Y-14494214D01*
X12098214Y-14337071D02*
X12112500Y-14308500D01*
X12141071Y-14294214D01*
X12183928Y-14294214D01*
X12212500Y-14308500D01*
X12226786Y-14337071D01*
X12226786Y-14494214D01*
X12812500Y-14179929D02*
X12555357Y-14565643D01*
X13198214Y-14194214D02*
X13226786Y-14194214D01*
X13255357Y-14208500D01*
X13269643Y-14222786D01*
X13283928Y-14251357D01*
X13298214Y-14308500D01*
X13298214Y-14379929D01*
X13283928Y-14437071D01*
X13269643Y-14465643D01*
X13255357Y-14479929D01*
X13226786Y-14494214D01*
X13198214Y-14494214D01*
X13169643Y-14479929D01*
X13155357Y-14465643D01*
X13141071Y-14437071D01*
X13126786Y-14379929D01*
X13126786Y-14308500D01*
X13141071Y-14251357D01*
X13155357Y-14222786D01*
X13169643Y-14208500D01*
X13198214Y-14194214D01*
X13426786Y-14465643D02*
X13441071Y-14479929D01*
X13426786Y-14494214D01*
X13412500Y-14479929D01*
X13426786Y-14465643D01*
X13426786Y-14494214D01*
X13626786Y-14194214D02*
X13655357Y-14194214D01*
X13683928Y-14208500D01*
X13698214Y-14222786D01*
X13712500Y-14251357D01*
X13726786Y-14308500D01*
X13726786Y-14379929D01*
X13712500Y-14437071D01*
X13698214Y-14465643D01*
X13683928Y-14479929D01*
X13655357Y-14494214D01*
X13626786Y-14494214D01*
X13598214Y-14479929D01*
X13583928Y-14465643D01*
X13569643Y-14437071D01*
X13555357Y-14379929D01*
X13555357Y-14308500D01*
X13569643Y-14251357D01*
X13583928Y-14222786D01*
X13598214Y-14208500D01*
X13626786Y-14194214D01*
X13826786Y-14194214D02*
X14012500Y-14194214D01*
X13912500Y-14308500D01*
X13955357Y-14308500D01*
X13983928Y-14322786D01*
X13998214Y-14337071D01*
X14012500Y-14365643D01*
X14012500Y-14437071D01*
X13998214Y-14465643D01*
X13983928Y-14479929D01*
X13955357Y-14494214D01*
X13869643Y-14494214D01*
X13841071Y-14479929D01*
X13826786Y-14465643D01*
X14155357Y-14494214D02*
X14212500Y-14494214D01*
X14241071Y-14479929D01*
X14255357Y-14465643D01*
X14283928Y-14422786D01*
X14298214Y-14365643D01*
X14298214Y-14251357D01*
X14283928Y-14222786D01*
X14269643Y-14208500D01*
X14241071Y-14194214D01*
X14183928Y-14194214D01*
X14155357Y-14208500D01*
X14141071Y-14222786D01*
X14126786Y-14251357D01*
X14126786Y-14322786D01*
X14141071Y-14351357D01*
X14155357Y-14365643D01*
X14183928Y-14379929D01*
X14241071Y-14379929D01*
X14269643Y-14365643D01*
X14283928Y-14351357D01*
X14298214Y-14322786D01*
X14555357Y-14294214D02*
X14555357Y-14494214D01*
X14483928Y-14179929D02*
X14412500Y-14394214D01*
X14598214Y-14394214D01*
X14698214Y-14194214D02*
X14698214Y-14251357D01*
X14812500Y-14194214D02*
X14812500Y-14251357D01*
X15255357Y-14608500D02*
X15241071Y-14594214D01*
X15212500Y-14551357D01*
X15198214Y-14522786D01*
X15183928Y-14479929D01*
X15169643Y-14408500D01*
X15169643Y-14351357D01*
X15183928Y-14279929D01*
X15198214Y-14237071D01*
X15212500Y-14208500D01*
X15241071Y-14165643D01*
X15255357Y-14151357D01*
X15498214Y-14294214D02*
X15498214Y-14494214D01*
X15426786Y-14179929D02*
X15355357Y-14394214D01*
X15541071Y-14394214D01*
X15883928Y-14494214D02*
X15883928Y-14194214D01*
X16012500Y-14494214D02*
X16012500Y-14337071D01*
X15998214Y-14308500D01*
X15969643Y-14294214D01*
X15926786Y-14294214D01*
X15898214Y-14308500D01*
X15883928Y-14322786D01*
X16198214Y-14494214D02*
X16169643Y-14479929D01*
X16155357Y-14465643D01*
X16141071Y-14437071D01*
X16141071Y-14351357D01*
X16155357Y-14322786D01*
X16169643Y-14308500D01*
X16198214Y-14294214D01*
X16241071Y-14294214D01*
X16269643Y-14308500D01*
X16283928Y-14322786D01*
X16298214Y-14351357D01*
X16298214Y-14437071D01*
X16283928Y-14465643D01*
X16269643Y-14479929D01*
X16241071Y-14494214D01*
X16198214Y-14494214D01*
X16469643Y-14494214D02*
X16441071Y-14479929D01*
X16426786Y-14451357D01*
X16426786Y-14194214D01*
X16698214Y-14479929D02*
X16669643Y-14494214D01*
X16612500Y-14494214D01*
X16583928Y-14479929D01*
X16569643Y-14451357D01*
X16569643Y-14337071D01*
X16583928Y-14308500D01*
X16612500Y-14294214D01*
X16669643Y-14294214D01*
X16698214Y-14308500D01*
X16712500Y-14337071D01*
X16712500Y-14365643D01*
X16569643Y-14394214D01*
X16826786Y-14479929D02*
X16855357Y-14494214D01*
X16912500Y-14494214D01*
X16941071Y-14479929D01*
X16955357Y-14451357D01*
X16955357Y-14437071D01*
X16941071Y-14408500D01*
X16912500Y-14394214D01*
X16869643Y-14394214D01*
X16841071Y-14379929D01*
X16826786Y-14351357D01*
X16826786Y-14337071D01*
X16841071Y-14308500D01*
X16869643Y-14294214D01*
X16912500Y-14294214D01*
X16941071Y-14308500D01*
X17055357Y-14608500D02*
X17069643Y-14594214D01*
X17098214Y-14551357D01*
X17112500Y-14522786D01*
X17126786Y-14479929D01*
X17141071Y-14408500D01*
X17141071Y-14351357D01*
X17126786Y-14279929D01*
X17112500Y-14237071D01*
X17098214Y-14208500D01*
X17069643Y-14165643D01*
X17055357Y-14151357D01*
X9837500Y-14594500D02*
X9837500Y-14914500D01*
X9677500Y-14754500D02*
X9997500Y-14754500D01*
X10255357Y-14590214D02*
X10441071Y-14590214D01*
X10341071Y-14704500D01*
X10383928Y-14704500D01*
X10412500Y-14718786D01*
X10426786Y-14733071D01*
X10441071Y-14761643D01*
X10441071Y-14833071D01*
X10426786Y-14861643D01*
X10412500Y-14875929D01*
X10383928Y-14890214D01*
X10298214Y-14890214D01*
X10269643Y-14875929D01*
X10255357Y-14861643D01*
X10569643Y-14861643D02*
X10583928Y-14875929D01*
X10569643Y-14890214D01*
X10555357Y-14875929D01*
X10569643Y-14861643D01*
X10569643Y-14890214D01*
X10698214Y-14618786D02*
X10712500Y-14604500D01*
X10741071Y-14590214D01*
X10812500Y-14590214D01*
X10841071Y-14604500D01*
X10855357Y-14618786D01*
X10869643Y-14647357D01*
X10869643Y-14675929D01*
X10855357Y-14718786D01*
X10683928Y-14890214D01*
X10869643Y-14890214D01*
X11055357Y-14590214D02*
X11083928Y-14590214D01*
X11112500Y-14604500D01*
X11126786Y-14618786D01*
X11141071Y-14647357D01*
X11155357Y-14704500D01*
X11155357Y-14775929D01*
X11141071Y-14833071D01*
X11126786Y-14861643D01*
X11112500Y-14875929D01*
X11083928Y-14890214D01*
X11055357Y-14890214D01*
X11026786Y-14875929D01*
X11012500Y-14861643D01*
X10998214Y-14833071D01*
X10983928Y-14775929D01*
X10983928Y-14704500D01*
X10998214Y-14647357D01*
X11012500Y-14618786D01*
X11026786Y-14604500D01*
X11055357Y-14590214D01*
X11341071Y-14590214D02*
X11369643Y-14590214D01*
X11398214Y-14604500D01*
X11412500Y-14618786D01*
X11426786Y-14647357D01*
X11441071Y-14704500D01*
X11441071Y-14775929D01*
X11426786Y-14833071D01*
X11412500Y-14861643D01*
X11398214Y-14875929D01*
X11369643Y-14890214D01*
X11341071Y-14890214D01*
X11312500Y-14875929D01*
X11298214Y-14861643D01*
X11283928Y-14833071D01*
X11269643Y-14775929D01*
X11269643Y-14704500D01*
X11283928Y-14647357D01*
X11298214Y-14618786D01*
X11312500Y-14604500D01*
X11341071Y-14590214D01*
X11569643Y-14890214D02*
X11569643Y-14690214D01*
X11569643Y-14718786D02*
X11583928Y-14704500D01*
X11612500Y-14690214D01*
X11655357Y-14690214D01*
X11683928Y-14704500D01*
X11698214Y-14733071D01*
X11698214Y-14890214D01*
X11698214Y-14733071D02*
X11712500Y-14704500D01*
X11741071Y-14690214D01*
X11783928Y-14690214D01*
X11812500Y-14704500D01*
X11826786Y-14733071D01*
X11826786Y-14890214D01*
X11969643Y-14890214D02*
X11969643Y-14690214D01*
X11969643Y-14718786D02*
X11983928Y-14704500D01*
X12012500Y-14690214D01*
X12055357Y-14690214D01*
X12083928Y-14704500D01*
X12098214Y-14733071D01*
X12098214Y-14890214D01*
X12098214Y-14733071D02*
X12112500Y-14704500D01*
X12141071Y-14690214D01*
X12183928Y-14690214D01*
X12212500Y-14704500D01*
X12226786Y-14733071D01*
X12226786Y-14890214D01*
X12812500Y-14575929D02*
X12555357Y-14961643D01*
X13198214Y-14590214D02*
X13226786Y-14590214D01*
X13255357Y-14604500D01*
X13269643Y-14618786D01*
X13283928Y-14647357D01*
X13298214Y-14704500D01*
X13298214Y-14775929D01*
X13283928Y-14833071D01*
X13269643Y-14861643D01*
X13255357Y-14875929D01*
X13226786Y-14890214D01*
X13198214Y-14890214D01*
X13169643Y-14875929D01*
X13155357Y-14861643D01*
X13141071Y-14833071D01*
X13126786Y-14775929D01*
X13126786Y-14704500D01*
X13141071Y-14647357D01*
X13155357Y-14618786D01*
X13169643Y-14604500D01*
X13198214Y-14590214D01*
X13426786Y-14861643D02*
X13441071Y-14875929D01*
X13426786Y-14890214D01*
X13412500Y-14875929D01*
X13426786Y-14861643D01*
X13426786Y-14890214D01*
X13726786Y-14890214D02*
X13555357Y-14890214D01*
X13641071Y-14890214D02*
X13641071Y-14590214D01*
X13612500Y-14633071D01*
X13583928Y-14661643D01*
X13555357Y-14675929D01*
X13841071Y-14618786D02*
X13855357Y-14604500D01*
X13883928Y-14590214D01*
X13955357Y-14590214D01*
X13983928Y-14604500D01*
X13998214Y-14618786D01*
X14012500Y-14647357D01*
X14012500Y-14675929D01*
X13998214Y-14718786D01*
X13826786Y-14890214D01*
X14012500Y-14890214D01*
X14269643Y-14590214D02*
X14212500Y-14590214D01*
X14183928Y-14604500D01*
X14169643Y-14618786D01*
X14141071Y-14661643D01*
X14126786Y-14718786D01*
X14126786Y-14833071D01*
X14141071Y-14861643D01*
X14155357Y-14875929D01*
X14183928Y-14890214D01*
X14241071Y-14890214D01*
X14269643Y-14875929D01*
X14283928Y-14861643D01*
X14298214Y-14833071D01*
X14298214Y-14761643D01*
X14283928Y-14733071D01*
X14269643Y-14718786D01*
X14241071Y-14704500D01*
X14183928Y-14704500D01*
X14155357Y-14718786D01*
X14141071Y-14733071D01*
X14126786Y-14761643D01*
X14483928Y-14590214D02*
X14512500Y-14590214D01*
X14541071Y-14604500D01*
X14555357Y-14618786D01*
X14569643Y-14647357D01*
X14583928Y-14704500D01*
X14583928Y-14775929D01*
X14569643Y-14833071D01*
X14555357Y-14861643D01*
X14541071Y-14875929D01*
X14512500Y-14890214D01*
X14483928Y-14890214D01*
X14455357Y-14875929D01*
X14441071Y-14861643D01*
X14426786Y-14833071D01*
X14412500Y-14775929D01*
X14412500Y-14704500D01*
X14426786Y-14647357D01*
X14441071Y-14618786D01*
X14455357Y-14604500D01*
X14483928Y-14590214D01*
X14698214Y-14590214D02*
X14698214Y-14647357D01*
X14812500Y-14590214D02*
X14812500Y-14647357D01*
X15255357Y-15004500D02*
X15241071Y-14990214D01*
X15212500Y-14947357D01*
X15198214Y-14918786D01*
X15183928Y-14875929D01*
X15169643Y-14804500D01*
X15169643Y-14747357D01*
X15183928Y-14675929D01*
X15198214Y-14633071D01*
X15212500Y-14604500D01*
X15241071Y-14561643D01*
X15255357Y-14547357D01*
X15498214Y-14690214D02*
X15498214Y-14890214D01*
X15426786Y-14575929D02*
X15355357Y-14790214D01*
X15541071Y-14790214D01*
X15883928Y-14890214D02*
X15883928Y-14590214D01*
X16012500Y-14890214D02*
X16012500Y-14733071D01*
X15998214Y-14704500D01*
X15969643Y-14690214D01*
X15926786Y-14690214D01*
X15898214Y-14704500D01*
X15883928Y-14718786D01*
X16198214Y-14890214D02*
X16169643Y-14875929D01*
X16155357Y-14861643D01*
X16141071Y-14833071D01*
X16141071Y-14747357D01*
X16155357Y-14718786D01*
X16169643Y-14704500D01*
X16198214Y-14690214D01*
X16241071Y-14690214D01*
X16269643Y-14704500D01*
X16283928Y-14718786D01*
X16298214Y-14747357D01*
X16298214Y-14833071D01*
X16283928Y-14861643D01*
X16269643Y-14875929D01*
X16241071Y-14890214D01*
X16198214Y-14890214D01*
X16469643Y-14890214D02*
X16441071Y-14875929D01*
X16426786Y-14847357D01*
X16426786Y-14590214D01*
X16698214Y-14875929D02*
X16669643Y-14890214D01*
X16612500Y-14890214D01*
X16583928Y-14875929D01*
X16569643Y-14847357D01*
X16569643Y-14733071D01*
X16583928Y-14704500D01*
X16612500Y-14690214D01*
X16669643Y-14690214D01*
X16698214Y-14704500D01*
X16712500Y-14733071D01*
X16712500Y-14761643D01*
X16569643Y-14790214D01*
X16826786Y-14875929D02*
X16855357Y-14890214D01*
X16912500Y-14890214D01*
X16941071Y-14875929D01*
X16955357Y-14847357D01*
X16955357Y-14833071D01*
X16941071Y-14804500D01*
X16912500Y-14790214D01*
X16869643Y-14790214D01*
X16841071Y-14775929D01*
X16826786Y-14747357D01*
X16826786Y-14733071D01*
X16841071Y-14704500D01*
X16869643Y-14690214D01*
X16912500Y-14690214D01*
X16941071Y-14704500D01*
X17055357Y-15004500D02*
X17069643Y-14990214D01*
X17098214Y-14947357D01*
X17112500Y-14918786D01*
X17126786Y-14875929D01*
X17141071Y-14804500D01*
X17141071Y-14747357D01*
X17126786Y-14675929D01*
X17112500Y-14633071D01*
X17098214Y-14604500D01*
X17069643Y-14561643D01*
X17055357Y-14547357D01*
M02*
